<svg width="449" height="379" viewBox="0 0 449 379" fill="none" xmlns="http://www.w3.org/2000/svg">
<g clip-path="url(#clip0)">
<path fill-rule="evenodd" clip-rule="evenodd" d="M353.857 242.417C368.216 233.582 375.969 227.804 376.636 227.377C378.198 226.39 377.811 224.374 376.263 224.348C374.715 224.321 370.391 225.896 369.831 226.216C369.27 226.523 369.283 225.962 369.283 225.962C371.525 218.676 365.133 216.248 363.412 215.967C361.69 215.687 360.316 216.341 360.236 217.275C360.156 218.209 361.437 218.716 361.437 218.716C365.454 219.544 366.081 223.213 364.293 225.429C362.491 227.644 358.955 228.525 356.579 225.949C354.204 223.374 356.419 220.478 357.3 219.65C358.167 218.823 359.061 217.942 358.287 216.982C357.513 216.021 356.539 216.728 356.539 216.728C347.785 221.786 351.255 228.912 351.255 228.912C351.255 228.912 351.882 231.354 349.787 232.501C349.573 232.622 349.04 232.848 348.252 233.182L353.857 242.417Z" fill="#F5A986"/>
<path fill-rule="evenodd" clip-rule="evenodd" d="M244.831 150.859C235.369 146.775 226.228 146.775 216.767 150.859L218.408 155.222H243.202L244.831 150.859Z" fill="#DDDDDD"/>
<path fill-rule="evenodd" clip-rule="evenodd" d="M242.642 126.785L242.308 134.751C242.308 134.751 242.308 151.085 242.308 153.554C242.308 154.755 243.429 156.477 245.391 157.985C243.67 159.853 240.453 163.176 237.171 165.751H224.894C221.611 163.176 218.408 159.853 216.673 157.985C218.648 156.477 219.756 154.755 219.756 153.554C219.756 151.072 219.756 134.751 219.756 134.751L219.422 126.785C219.422 126.785 225.134 127.812 231.032 129.253C236.93 127.812 242.642 126.785 242.642 126.785Z" fill="#E09B7B"/>
<path fill-rule="evenodd" clip-rule="evenodd" d="M234.608 167.219L232.353 167.539H231.032H229.711L227.456 167.219L214.178 154.648L191.665 165.644V165.658C191.665 165.658 187.728 184.954 187.728 209.295L188.356 219.904C188.542 222.787 188.729 225.562 188.916 228.231L189.023 233.649C189.023 233.649 187.021 276.099 187.488 277.927C187.955 279.755 191.785 284.092 191.785 284.092C191.638 285.24 191.465 286.468 191.292 287.762C198.177 290.644 210.975 294.354 231.005 294.194C251.036 294.368 263.833 290.658 270.719 287.762C270.546 286.481 270.386 285.253 270.226 284.092C270.226 284.092 274.056 279.742 274.523 277.927C274.99 276.099 273.001 233.649 273.001 233.649L273.108 228.231C273.295 225.562 273.482 222.787 273.669 219.904L274.296 209.295C274.296 184.954 270.359 165.658 270.359 165.658V165.644L247.833 154.648L234.608 167.219Z" fill="#1B1D1B"/>
<path fill-rule="evenodd" clip-rule="evenodd" d="M187.742 208.481C187.742 208.748 187.742 209.015 187.742 209.295L188.369 219.904C188.556 222.787 188.743 225.562 188.929 228.231L189.036 233.649L189.01 234.276C189.383 226.296 190.731 202.676 190.09 203.77C189.957 204.011 189.076 205.785 187.742 208.481ZM187.528 271.001C190.384 275.138 197.91 280.956 217.687 282.131C249.034 284.012 260.484 272.376 262.179 261.673C263.873 250.971 277.138 183.006 245.818 161.521C244.737 160.774 243.763 160.066 242.882 159.372L247.886 154.648L270.412 165.644V165.658C270.412 165.658 270.573 166.432 270.826 167.86C270.506 173.811 270.759 183.42 273.922 195.096C274.189 199.54 274.349 204.317 274.349 209.308L273.722 219.917C273.535 222.8 273.348 225.576 273.161 228.245L273.055 233.662C273.055 233.662 275.056 276.112 274.576 277.94C274.109 279.769 270.279 284.106 270.279 284.106C270.426 285.253 270.599 286.481 270.773 287.775C263.887 290.658 251.089 294.368 231.059 294.208C211.028 294.381 198.231 290.671 191.345 287.775C191.518 286.494 191.678 285.267 191.839 284.106C191.839 284.106 188.009 279.755 187.542 277.94C187.408 277.487 187.435 274.831 187.528 271.001Z" fill="black"/>
<path fill-rule="evenodd" clip-rule="evenodd" d="M234.088 165.137L232.046 165.431H229.524L227.482 165.137L219.422 157.504L218.221 157.878L215.646 161.281C215.646 161.281 221.531 174.906 221.864 175.373C222.211 175.826 222.825 176.067 223.706 174.986C224.587 173.918 227.362 170.408 227.362 170.408C227.362 170.408 228.163 169.554 228.537 170.515C228.91 171.476 233.074 168.847 233.074 168.847L233.367 169.768C233.367 169.768 233.995 168.994 234.622 169.995C235.249 170.996 238.318 175.279 238.532 175.466C238.745 175.653 239.679 176.293 240.333 174.946C240.934 173.718 247.927 158.025 249.141 155.276L246.072 153.781L234.088 165.137Z" fill="#1E1D3E"/>
<path fill-rule="evenodd" clip-rule="evenodd" d="M234.088 165.137L232.046 165.431H229.524L227.482 165.137L226.682 164.377L224.987 167.299C224.987 167.299 228.777 168.527 228.777 171.85C228.777 175.172 228.777 291.432 228.777 291.432L230.792 296.423L232.807 291.432C232.807 291.432 232.807 175.172 232.807 171.85C232.807 168.527 236.597 167.299 236.597 167.299L234.902 164.377L234.088 165.137Z" fill="black"/>
<path fill-rule="evenodd" clip-rule="evenodd" d="M228.31 164.15L229.524 163.95C229.524 163.95 229.764 164.203 229.804 164.644C229.844 165.084 229.871 166.378 229.871 166.378C229.431 166.538 227.029 167.032 227.109 166.685C227.122 166.605 228.31 164.15 228.31 164.15Z" fill="#1E1D3E"/>
<path fill-rule="evenodd" clip-rule="evenodd" d="M233.274 164.15L232.06 163.95C232.06 163.95 231.819 164.203 231.779 164.644C231.739 165.084 231.713 166.378 231.713 166.378C232.153 166.725 234.555 167.032 234.475 166.685C234.462 166.605 233.274 164.15 233.274 164.15Z" fill="#1E1D3E"/>
<path fill-rule="evenodd" clip-rule="evenodd" d="M244.831 150.858C244.964 150.979 246.472 153.621 247.259 154.902C247.259 154.902 247.967 155.943 247.446 157.704C246.926 159.466 240.08 173.892 240.08 173.892C240.08 173.892 239.599 174.652 238.812 173.905C238.025 173.158 232.06 163.936 232.06 163.936L243.376 152.006C243.896 151.339 244.697 150.738 244.831 150.858Z" fill="white"/>
<path fill-rule="evenodd" clip-rule="evenodd" d="M216.767 150.859C216.673 150.899 215.125 153.621 214.338 154.902C214.338 154.902 213.631 155.943 214.151 157.704C214.671 159.466 221.517 173.892 221.517 173.892C221.517 173.892 221.998 174.652 222.785 173.905C223.572 173.158 229.538 163.936 229.538 163.936L218.221 152.006C217.461 151.125 216.86 150.805 216.767 150.859Z" fill="white"/>
<path fill-rule="evenodd" clip-rule="evenodd" d="M196.763 206.773H219.089C219.382 206.773 219.622 207.013 219.622 207.307V208.735C219.622 209.028 219.382 209.268 219.089 209.268H196.763C196.469 209.268 196.229 209.028 196.229 208.735V207.307C196.229 207.013 196.469 206.773 196.763 206.773Z" fill="white"/>
<path fill-rule="evenodd" clip-rule="evenodd" d="M321.549 273.857C321.549 273.857 249.568 288.429 229.778 288.429C209.987 288.429 138.006 273.857 138.006 273.857L141.569 287.989L229.778 313.597L317.986 287.989L321.549 273.857Z" fill="#1B1D1B"/>
<path fill-rule="evenodd" clip-rule="evenodd" d="M163.254 331.733L167.138 331.239C167.138 331.239 172.262 329.838 173.863 329.317C175.478 328.81 179.935 329.758 181.403 337.218C182.871 344.677 178.988 346.225 174.677 347.319C170.354 348.414 159.318 351.71 159.318 351.71C159.318 351.71 153.82 339.926 163.254 331.733Z" fill="#F18F75"/>
<path fill-rule="evenodd" clip-rule="evenodd" d="M159.318 349.028C159.318 349.028 160.238 348.841 162.28 348.841C164.335 348.841 164.442 350.162 164.655 351.256C164.869 352.351 165.79 355.206 162.387 356.568C158.984 357.915 138.713 365.121 138.713 365.121L134.977 363.187C134.99 363.187 146.106 352.951 159.318 349.028Z" fill="#1B1D1B"/>
<path fill-rule="evenodd" clip-rule="evenodd" d="M154.98 320.643C154.98 320.643 160.078 322.765 166.297 327.89C166.297 327.89 167.871 329.424 166.991 331.653C166.11 333.881 157.449 337.618 160.519 350.055C160.519 350.055 161.252 352.03 159.131 352.764C157.009 353.498 142.45 359.276 140.622 360.517C138.793 361.759 138.86 363.226 138.713 365.121C138.566 367.03 135.644 366.589 130.373 372.141C125.102 377.705 119.75 380.628 115.573 377.732C115.573 377.732 113.692 377.038 113.105 374.77C112.518 372.501 114.279 365.188 114.279 365.188L136.885 332.333L154.98 320.643Z" fill="black"/>
<path fill-rule="evenodd" clip-rule="evenodd" d="M154.98 320.643C154.98 320.643 145.025 332.72 142.396 336.15C139.767 339.593 135.591 340.54 131.574 344.851C127.544 349.161 118.483 360.945 115.627 367.096C112.771 373.248 114.386 376.758 115.587 377.746C115.587 377.746 113.372 378.373 112.918 378.199C112.464 378.039 110.956 374.503 110.743 371.207C110.529 367.91 115.64 356.794 120.765 349.908C125.889 343.036 131.814 337.538 137.085 330.745C142.356 323.94 145.933 318.495 147.547 317.027C149.162 315.559 149.923 315.639 150.697 315.706C151.471 315.773 154.607 318.855 154.98 319.362C155.327 319.896 154.98 320.643 154.98 320.643Z" fill="white"/>
<path fill-rule="evenodd" clip-rule="evenodd" d="M114.119 378.106C113.599 378.213 113.105 378.279 112.905 378.213C112.451 378.053 110.943 374.516 110.729 371.22C110.516 367.924 115.627 356.808 120.751 349.922C125.876 343.049 131.801 337.551 137.072 330.759C142.343 323.953 145.919 318.508 147.534 317.04C149.149 315.573 149.91 315.653 150.684 315.719C150.91 315.746 151.324 316.013 151.818 316.4C151.818 316.4 149.843 315.813 146.146 320.644C142.45 325.474 135.711 335.069 126.796 344.637C117.882 354.219 112.451 365.789 111.797 371.047C111.597 372.648 112.611 375.25 114.119 378.106Z" fill="#302E59"/>
<path fill-rule="evenodd" clip-rule="evenodd" d="M169.7 328.73C169.7 328.73 309.005 277.954 316.038 275.325C323.057 272.696 333.012 272.109 335.788 280.743C338.564 289.377 340.472 309.274 314.423 316.6C288.374 323.913 177.013 348.934 173.209 349.521C169.406 350.109 168.165 333.801 168.499 330.865C168.499 330.852 168.779 329.277 169.7 328.73Z" fill="black"/>
<path fill-rule="evenodd" clip-rule="evenodd" d="M169.7 328.73C169.7 328.73 204.956 315.879 240.894 302.775C243.723 305.31 249.221 308.607 259.843 311.609C281.061 317.614 307.577 309.754 320.669 306.725C333.44 303.762 337.35 291.926 337.283 288.896C337.79 298.491 333.987 311.075 314.423 316.573C288.374 323.886 177.013 348.908 173.209 349.495C169.406 350.082 168.165 333.775 168.499 330.839C168.499 330.852 168.779 329.278 169.7 328.73Z" fill="#1B1D1B"/>
<path fill-rule="evenodd" clip-rule="evenodd" d="M296.301 331.733L292.418 331.239C292.418 331.239 287.293 329.838 285.692 329.317C284.077 328.81 279.62 329.758 278.152 337.218C276.684 344.677 280.568 346.225 284.878 347.319C289.188 348.414 300.238 351.71 300.238 351.71C300.238 351.71 305.736 339.926 296.301 331.733Z" fill="#F18F75"/>
<path fill-rule="evenodd" clip-rule="evenodd" d="M300.238 349.028C300.238 349.028 299.317 348.841 297.275 348.841C295.22 348.841 295.113 350.162 294.9 351.256C294.686 352.351 293.766 355.206 297.169 356.568C300.571 357.915 320.842 365.121 320.842 365.121L324.579 363.187C324.565 363.187 313.449 352.951 300.238 349.028Z" fill="#1B1D1B"/>
<path fill-rule="evenodd" clip-rule="evenodd" d="M304.575 320.643C304.575 320.643 299.477 322.765 293.259 327.89C293.259 327.89 291.684 329.424 292.565 331.653C293.445 333.881 302.106 337.618 299.037 350.055C299.037 350.055 298.303 352.03 300.425 352.764C302.546 353.498 317.106 359.276 318.934 360.517C320.762 361.759 320.695 363.226 320.842 365.121C320.989 367.03 323.911 366.589 329.183 372.141C334.454 377.705 339.805 380.628 343.982 377.732C343.982 377.732 345.863 377.038 346.451 374.77C347.038 372.501 345.276 365.188 345.276 365.188L322.67 332.333L304.575 320.643Z" fill="black"/>
<path fill-rule="evenodd" clip-rule="evenodd" d="M304.575 320.643C304.575 320.643 314.53 332.72 317.159 336.15C319.788 339.593 323.965 340.54 327.982 344.851C332.012 349.161 341.073 360.945 343.928 367.096C346.784 373.248 345.17 376.758 343.969 377.746C343.969 377.746 346.184 378.373 346.637 378.199C347.091 378.039 348.599 374.503 348.813 371.207C349.026 367.91 343.915 356.794 338.791 349.908C333.666 343.036 327.741 337.538 322.47 330.745C317.199 323.94 313.623 318.495 312.008 317.027C310.393 315.559 309.633 315.639 308.859 315.706C308.085 315.773 304.949 318.855 304.575 319.362C304.228 319.896 304.575 320.643 304.575 320.643Z" fill="white"/>
<path fill-rule="evenodd" clip-rule="evenodd" d="M345.436 378.106C345.957 378.213 346.451 378.279 346.651 378.213C347.104 378.053 348.612 374.516 348.826 371.22C349.039 367.924 343.928 356.808 338.804 349.922C333.68 343.049 327.755 337.551 322.483 330.759C317.212 323.953 313.636 318.508 312.021 317.04C310.407 315.573 309.646 315.653 308.872 315.719C308.645 315.746 308.231 316.013 307.738 316.4C307.738 316.4 309.713 315.813 313.409 320.644C317.106 325.474 323.845 335.069 332.759 344.637C341.673 354.219 347.105 365.789 347.758 371.047C347.959 372.648 346.944 375.25 345.436 378.106Z" fill="#302E59"/>
<path fill-rule="evenodd" clip-rule="evenodd" d="M289.856 328.73C289.856 328.73 150.55 277.954 143.517 275.325C136.498 272.696 126.543 272.109 123.767 280.743C120.991 289.377 119.083 309.274 145.132 316.6C171.181 323.913 282.543 348.934 286.346 349.521C290.149 350.109 291.39 333.801 291.057 330.865C291.057 330.852 290.776 329.277 289.856 328.73Z" fill="black"/>
<path fill-rule="evenodd" clip-rule="evenodd" d="M123.127 283.025C120.858 292.486 121.178 309.861 145.132 316.587C171.181 323.9 282.543 348.921 286.346 349.508C288.695 349.868 290.056 343.81 290.683 338.432C286.786 340.701 280.247 342.155 269.412 339.953C245.378 335.069 168.792 316.493 144.945 305.791C121.365 295.195 123.087 283.278 123.127 283.025Z" fill="#1B1D1B"/>
<path fill-rule="evenodd" clip-rule="evenodd" d="M202.648 111.291C202.448 111.318 202.261 111.345 202.074 111.385C198.564 112.119 195.895 115.201 195.829 118.938C195.749 123.275 199.205 126.865 203.542 126.958C207.879 127.038 211.469 123.582 211.562 119.245C211.615 116.723 210.468 114.454 208.64 112.973C208.84 115.295 208.466 118.164 205.504 118.457L205.584 113.92C205.624 112.092 203.916 111.251 202.648 111.291Z" fill="#E09B7B"/>
<path fill-rule="evenodd" clip-rule="evenodd" d="M259.43 111.291C259.63 111.318 259.817 111.345 260.003 111.385H260.017C263.526 112.119 266.195 115.201 266.262 118.938C266.342 123.275 262.886 126.865 258.549 126.958C254.199 127.038 250.622 123.582 250.529 119.245C250.475 116.723 251.623 114.454 253.451 112.973C253.251 115.295 253.625 118.164 256.587 118.458L256.507 113.92C256.454 112.092 258.175 111.251 259.43 111.291Z" fill="#E09B7B"/>
<path fill-rule="evenodd" clip-rule="evenodd" d="M231.045 72.0045C216.233 72.0045 204.116 84.1215 204.116 98.9341V123.435C204.116 138.248 216.233 150.365 231.045 150.365C245.858 150.365 257.975 138.248 257.975 123.435V98.9341C257.975 84.1215 245.858 72.0045 231.045 72.0045Z" fill="#F5A986"/>
<path fill-rule="evenodd" clip-rule="evenodd" d="M232.593 150.311C246.685 149.497 257.975 137.714 257.975 123.422V98.9341C257.975 87.858 251.196 78.2898 241.574 74.1663C231.539 78.4499 207.839 95.6379 207.839 95.6379L210.188 99.0141C210.188 99.0141 211.402 95.0241 218.822 95.0241C226.241 95.0241 233.928 95.0241 238.105 95.0241C242.282 95.0241 246.605 96.532 246.605 101.269C246.605 106.007 248.674 110.931 253.078 110.931C253.078 110.931 253.078 120.593 253.078 126.985C253.078 133.363 246.939 148.603 232.593 150.311Z" fill="#F5A986"/>
<path fill-rule="evenodd" clip-rule="evenodd" d="M220.049 91.7013C217.154 91.7013 211.549 93.0758 211.549 98.8674C211.549 104.659 210.455 109.25 206.758 109.25C206.758 109.25 206.758 111.251 206.758 113.787C206.758 116.322 206.504 118.898 204.116 118.898C204.116 113.44 202.448 111.291 202.448 111.291C202.448 111.291 202.448 103.978 202.448 97.5863C202.448 91.1941 204.249 82.6135 212.63 76.7151C223.479 69.0953 238.612 69.0953 249.461 76.7151C257.855 82.6001 259.643 91.1941 259.643 97.5863C259.643 103.978 259.643 111.291 259.643 111.291C259.643 111.291 257.975 113.44 257.975 118.898C255.573 118.898 255.333 116.322 255.333 113.787C255.333 111.251 255.333 109.25 255.333 109.25C251.636 109.25 250.542 104.659 250.542 98.8674C250.542 93.0758 244.937 91.7013 242.041 91.7013C234.702 91.7013 227.376 91.7013 220.049 91.7013Z" fill="black"/>
<path fill-rule="evenodd" clip-rule="evenodd" d="M252.424 79.1706C255.747 82.3867 259.683 86.31 260.124 87.4176C260.684 88.8455 259.937 92.0883 259.456 94.0633C257.828 100.562 255.333 109.25 255.333 109.25C251.636 109.25 250.542 104.659 250.542 98.8674C250.542 94.5704 247.459 92.7022 244.684 92.0349L244.203 80.3316L252.424 79.1706Z" fill="black"/>
<path fill-rule="evenodd" clip-rule="evenodd" d="M209.654 79.1706C206.331 82.3867 202.394 86.31 201.954 87.4176C201.393 88.8455 202.141 92.0883 202.621 94.0633C204.249 100.562 206.745 109.25 206.745 109.25C210.441 109.25 211.535 104.659 211.535 98.8674C211.535 94.5704 214.618 92.7022 217.394 92.0349L217.874 80.3316L209.654 79.1706Z" fill="black"/>
<path fill-rule="evenodd" clip-rule="evenodd" d="M211.509 93.4762C211.509 93.4762 205.077 89.6195 204.756 84.7621C204.182 75.8478 216.86 61.689 228.523 67.3338C254.692 55.6038 270.719 73.419 248.554 93.4762C248.447 93.5696 248.354 93.6496 248.247 93.7431C246.365 92.1817 243.723 91.7013 242.028 91.7013C234.702 91.7013 227.376 91.7013 220.049 91.7013C218.141 91.7013 215.058 92.3018 213.177 94.3569C212.109 93.8231 211.509 93.4762 211.509 93.4762Z" fill="black"/>
<path fill-rule="evenodd" clip-rule="evenodd" d="M206.238 86.9239C206.358 87.084 206.331 87.3243 206.171 87.4444C206.011 87.5645 205.797 87.5378 205.677 87.3776C205.664 87.3643 201.1 81.2524 206.558 73.2456C206.678 73.0721 206.891 73.0454 207.052 73.1655C207.212 73.2856 207.238 73.5258 207.132 73.6859C201.994 81.2391 206.238 86.9106 206.238 86.9239Z" fill="#202349"/>
<path fill-rule="evenodd" clip-rule="evenodd" d="M211.869 72.5382C211.749 72.6984 211.535 72.7384 211.375 72.6183C211.215 72.4982 211.188 72.258 211.309 72.0979C211.322 72.0712 217.954 62.463 225.134 62.3429C232.593 62.2228 230.779 70.3897 230.779 70.4164C230.739 70.6166 230.552 70.75 230.351 70.6967C230.165 70.6566 230.045 70.4565 230.085 70.2429C230.085 70.2163 231.699 62.9834 225.147 63.0902C218.315 63.1969 211.896 72.5116 211.869 72.5382Z" fill="black"/>
<path fill-rule="evenodd" clip-rule="evenodd" d="M239.96 64.9318C239.786 65.0118 239.573 64.9184 239.493 64.7316C239.413 64.5448 239.506 64.3179 239.679 64.2378C239.693 64.2245 246.018 61.3153 253.091 63.4505C254.986 64.0243 256.627 65.0118 257.882 66.3063C259.016 67.4806 259.843 68.8952 260.257 70.4698C260.671 72.0445 260.697 73.7793 260.217 75.5809C259.697 77.5559 258.576 79.5976 256.734 81.6127C256.601 81.7595 256.374 81.7595 256.24 81.626C256.107 81.4792 256.093 81.239 256.24 81.0922C257.988 79.1706 259.056 77.2356 259.55 75.3807C259.99 73.7259 259.977 72.1246 259.59 70.6833C259.203 69.2421 258.442 67.9343 257.401 66.8534C256.227 65.639 254.692 64.7183 252.917 64.1711C246.072 62.116 239.973 64.9318 239.96 64.9318Z" fill="black"/>
<path fill-rule="evenodd" clip-rule="evenodd" d="M207.519 75.8745C207.839 75.3674 208.173 74.8736 208.533 74.3932C219.342 83.094 244.564 77.4625 238.265 64.1711C241.988 63.4505 245.351 63.4105 248.233 63.9443C253.998 75.9679 223.532 93.7564 207.519 75.8745Z" fill="black"/>
<path fill-rule="evenodd" clip-rule="evenodd" d="M206.037 74.0596C206.198 73.7927 206.371 73.5258 206.558 73.2589C206.678 73.0854 206.891 73.0587 207.052 73.1788C207.212 73.2989 207.238 73.5391 207.132 73.6992C206.905 74.0329 206.705 74.3531 206.518 74.6734C206.358 74.4732 206.198 74.2731 206.037 74.0596Z" fill="#302E59"/>
<path fill-rule="evenodd" clip-rule="evenodd" d="M239.96 64.9318C239.786 65.0118 239.573 64.9184 239.493 64.7316C239.413 64.5448 239.506 64.3179 239.679 64.2378C239.693 64.2245 242.976 62.7165 247.473 62.6765C247.646 62.9167 247.806 63.1703 247.953 63.4238C243.376 63.3571 239.973 64.9318 239.96 64.9318Z" fill="black"/>
<path fill-rule="evenodd" clip-rule="evenodd" d="M211.509 93.4761C211.509 93.4761 205.077 89.6195 204.756 84.762C204.623 82.7469 205.183 80.4516 206.251 78.183C207.052 81.4925 209.56 84.842 215.712 86.8171C228.817 91.0073 260.284 79.9312 253.491 65.8258C261.405 70.4297 261.725 81.5592 248.54 93.4761C248.434 93.5695 248.34 93.6496 248.233 93.743C246.352 92.1816 243.71 91.7012 242.015 91.7012C234.689 91.7012 227.362 91.7012 220.036 91.7012C218.128 91.7012 215.045 92.3017 213.163 94.3568C212.109 93.823 211.509 93.4761 211.509 93.4761Z" fill="black"/>
<path fill-rule="evenodd" clip-rule="evenodd" d="M206.238 86.9238C206.358 87.0839 206.331 87.3241 206.171 87.4442C206.011 87.5643 205.797 87.5376 205.677 87.3775C205.664 87.3642 201.433 81.6927 205.997 74.1129C205.944 74.6333 205.917 75.1671 205.931 75.7142C202.741 82.2398 206.238 86.9104 206.238 86.9238Z" fill="black"/>
<path fill-rule="evenodd" clip-rule="evenodd" d="M251.743 63.1168C252.183 63.2102 252.637 63.3303 253.091 63.4638C254.986 64.0376 256.627 65.0251 257.882 66.3196C259.016 67.4939 259.843 68.9084 260.257 70.4831C260.671 72.0578 260.697 73.7926 260.217 75.5941C259.697 77.5692 258.576 79.6109 256.734 81.626C256.601 81.7727 256.374 81.7728 256.24 81.6393C256.107 81.4925 256.093 81.2523 256.24 81.1055C257.988 79.1839 259.056 77.2489 259.55 75.394C259.99 73.7392 259.977 72.1379 259.59 70.6966C259.203 69.2554 258.442 67.9476 257.401 66.8667C256.227 65.6523 254.692 64.7315 252.917 64.1844C252.771 64.1444 252.624 64.1043 252.49 64.0643C252.25 63.744 252.01 63.4238 251.743 63.1168Z" fill="black"/>
<path fill-rule="evenodd" clip-rule="evenodd" d="M267.116 207.147C267.116 207.147 296.181 263.675 304.935 265.85C313.703 268.025 336.722 254.28 355.885 242.497C356.152 240.148 351.829 231.274 349.52 231.154C342.38 234.17 312.822 247.114 310.767 247.101C309.059 247.087 295.847 212.391 288.188 191.573C284.464 181.445 279.02 169.421 270.212 165.578C270.212 165.564 256.374 169.087 267.116 207.147Z" fill="#1B1D1B"/>
<path fill-rule="evenodd" clip-rule="evenodd" d="M267.116 207.146C267.116 207.146 296.181 263.675 304.935 265.85C313.703 268.025 336.722 254.28 355.885 242.497C356.046 241.122 354.644 237.559 352.99 234.783C351.789 240.535 341.34 247.968 331.358 252.959C320.282 258.497 309.766 263.568 306.296 260.085C302.827 256.615 297.102 245.166 281.702 215.127C270.372 193.028 270.226 174.292 270.946 165.925C270.706 165.804 270.452 165.684 270.199 165.578C270.199 165.578 260.391 168.073 263.7 191.573C264.287 194.122 264.754 196.724 265.128 199.353C265.675 201.769 266.329 204.357 267.116 207.146Z" fill="black"/>
<path fill-rule="evenodd" clip-rule="evenodd" d="M107.727 242.417C93.3679 233.582 84.4936 227.337 83.8264 226.91C82.2651 225.922 82.6521 223.907 84.2 223.881C85.748 223.854 91.206 225.896 91.7665 226.216C92.327 226.523 92.3136 225.962 92.3136 225.962C90.0717 218.676 96.4639 216.248 98.1853 215.967C99.9068 215.687 101.281 216.341 101.361 217.275C101.441 218.209 100.16 218.716 100.16 218.716C96.1436 219.544 95.5164 223.213 97.3046 225.429C99.1061 227.644 102.642 228.525 105.018 225.949C107.393 223.374 105.178 220.478 104.297 219.65C103.43 218.823 102.536 217.942 103.31 216.982C104.084 216.021 105.058 216.728 105.058 216.728C113.812 221.786 110.342 228.912 110.342 228.912C110.342 228.912 109.715 231.354 111.81 232.501C112.024 232.622 112.558 232.848 113.345 233.182L107.727 242.417Z" fill="#F5A986"/>
<path fill-rule="evenodd" clip-rule="evenodd" d="M194.468 207.147C194.468 207.147 165.403 263.675 156.649 265.85C147.894 268.025 124.861 254.28 105.698 242.497C105.431 240.148 109.755 231.274 112.064 231.154C119.203 234.17 148.762 247.114 150.817 247.101C152.525 247.087 165.736 212.391 173.396 191.573C177.119 181.445 182.564 169.421 191.372 165.578C191.385 165.564 205.223 169.087 194.468 207.147Z" fill="#1B1D1B"/>
<path fill-rule="evenodd" clip-rule="evenodd" d="M189.93 215.754C181.403 231.661 163.254 264.209 156.649 265.85C147.894 268.025 124.861 254.28 105.698 242.497C105.578 241.416 106.419 238.974 107.58 236.625C109.115 239.067 112.544 242.39 119.977 246.473C136.685 255.668 146.547 260.365 152.071 261.58C157.609 262.794 162.68 254.067 168.312 245.526C173.943 236.985 189.437 204.878 190.09 203.757C190.424 203.21 190.237 208.921 189.93 215.754Z" fill="black"/>
<path fill-rule="evenodd" clip-rule="evenodd" d="M364.559 226.697C369.991 219.49 377.143 212.431 377.424 215.647C377.704 218.863 370.698 225.295 367.429 228.391C364.172 231.501 364.559 226.697 364.559 226.697Z" fill="#F5A986"/>
<path fill-rule="evenodd" clip-rule="evenodd" d="M365.72 227.177C373.46 220.705 383.042 214.82 382.535 218.383C382.028 221.959 372.766 227.19 368.416 229.753C364.066 232.301 365.72 227.177 365.72 227.177Z" fill="#F5A986"/>
<path fill-rule="evenodd" clip-rule="evenodd" d="M368.936 219.797C368.803 219.544 368.656 219.304 368.496 219.077C366.828 216.715 363.972 215.674 362.865 215.46C360.943 215.1 359.382 215.781 359.275 216.795C359.168 217.809 360.583 218.41 360.583 218.41C365.053 219.437 365.667 223.441 363.599 225.803C363.025 226.456 362.291 227.004 361.49 227.377C361.704 227.351 361.917 227.297 362.157 227.257C364.226 226.87 371.152 223.334 368.936 219.797Z" fill="#F18F75"/>
<path fill-rule="evenodd" clip-rule="evenodd" d="M369.137 228.485C368.83 229.859 368.269 231.381 367.095 232.955C372.646 229.793 376.743 227.404 378.064 226.683C381.334 224.882 382.722 224.175 382.962 223.134C382.708 222.853 382.321 222.667 381.841 222.64C380.453 222.573 374.034 225.055 371.152 226.23C370.404 226.537 369.897 226.75 369.764 226.817C369.604 226.897 369.497 226.924 369.404 226.91C369.337 227.417 369.257 227.938 369.137 228.485Z" fill="#F5A986"/>
<path fill-rule="evenodd" clip-rule="evenodd" d="M96.4372 226.844C91.0058 219.637 83.8531 212.578 83.5728 215.794C83.2926 219.01 90.2986 225.442 93.568 228.538C96.8375 231.634 96.4372 226.844 96.4372 226.844Z" fill="#F5A986"/>
<path fill-rule="evenodd" clip-rule="evenodd" d="M95.2895 227.311C87.5496 220.838 77.9681 214.953 78.4752 218.516C78.9823 222.093 88.2435 227.324 92.5939 229.886C96.9443 232.435 95.2895 227.311 95.2895 227.311Z" fill="#F5A986"/>
<path fill-rule="evenodd" clip-rule="evenodd" d="M92.0601 219.931C92.1935 219.677 92.3403 219.437 92.5005 219.21C94.1686 216.848 97.0243 215.807 98.1319 215.594C100.054 215.234 101.615 215.914 101.735 216.928C101.842 217.943 100.427 218.543 100.427 218.543C95.9434 219.571 95.3429 223.574 97.4113 225.936C97.9851 226.59 98.7191 227.137 99.5198 227.511C99.3196 227.484 99.0928 227.431 98.8526 227.391C96.7708 227.017 89.8582 223.481 92.0601 219.931Z" fill="#F18F75"/>
<path fill-rule="evenodd" clip-rule="evenodd" d="M91.8733 228.632C92.1802 230.006 92.7407 231.527 93.915 233.089C88.3769 229.926 84.2668 227.537 82.9456 226.817C79.6762 225.015 78.2883 224.308 78.0481 223.267C78.3017 222.987 78.6887 222.8 79.1691 222.773C80.5569 222.706 86.9758 225.189 89.8582 226.363C90.6055 226.67 91.1126 226.883 91.2461 226.95C91.4062 227.03 91.513 227.057 91.6064 227.043C91.6597 227.551 91.7532 228.084 91.8733 228.632Z" fill="#F5A986"/>
<path d="M178.494 2.35834C129.025 5.94807 75.0056 12.5003 35.3984 27.7133L47.9158 112.359C47.9158 112.359 124.675 84.8821 187.141 86.7904L178.494 2.35834Z" fill="#499B62"/>
<path d="M178.494 2.35834C129.025 5.94807 75.0056 12.5003 35.3984 27.7133L47.9158 112.359C47.9158 112.359 124.675 84.8821 187.141 86.7904L178.494 2.35834Z" fill="#F5F5F5"/>
<path d="M174.877 75.6209L174.397 75.7009L172.996 75.9011L167.658 76.5683C165.309 76.8486 162.44 77.1955 159.117 77.676C155.795 78.1564 152.005 78.6368 147.841 79.3307C131.147 81.9062 108.167 86.1632 83.2125 92.6754C74.5385 94.9173 66.1713 97.226 58.5248 99.628L58.1378 99.7348V99.3478C55.4688 79.9446 52.88 63.2103 50.8916 51.3068C49.8774 45.4084 49.0634 40.631 48.5029 37.4149C48.2227 35.8269 48.0091 34.5858 47.849 33.7051C47.849 33.3047 47.7422 32.9845 47.7022 32.7443C47.6889 32.6375 47.6889 32.5174 47.7022 32.4106C47.7422 32.5174 47.7823 32.6242 47.7956 32.7309C47.7956 32.9711 47.9157 33.2914 48.0091 33.6784C48.1826 34.5591 48.4362 35.7869 48.7698 37.3749C49.4103 40.591 50.3044 45.3017 51.3453 51.2267C53.4538 63.0768 56.1227 79.8111 58.8451 99.2677L58.4047 99.0008C66.0779 96.5721 74.4184 94.2501 83.1325 92.0082C104.457 86.5102 126.062 82.1331 147.854 78.9037C152.031 78.2498 155.861 77.8094 159.157 77.369C162.454 76.9287 165.363 76.6084 167.711 76.3682L173.129 75.821L174.544 75.7009C174.651 75.6609 174.757 75.6342 174.877 75.6209Z" fill="#499B62"/>
<path d="M176.612 55.0433C176.612 55.0433 176.425 54.4561 176.038 53.3485C175.398 51.7739 174.544 50.3059 173.49 48.9848C171.822 46.8763 169.793 45.0881 167.485 43.7136C166.844 43.2866 166.083 42.9663 165.349 42.5793C164.562 42.2324 163.761 41.9521 162.934 41.7119C161.159 41.1515 159.278 40.9646 157.423 41.1781C155.394 41.405 153.459 42.1657 151.818 43.38C150.043 44.7278 148.535 46.3826 147.334 48.2508C144.665 52.1075 143.05 56.8048 141.049 61.6756C140.074 64.2512 138.473 66.5465 136.391 68.348C135.284 69.2821 133.949 69.9093 132.535 70.2029C131.067 70.4565 129.559 70.2696 128.184 69.6958C122.553 67.4673 120.044 60.9684 114.346 59.02C111.543 58.1259 108.514 58.3795 105.899 59.714C104.618 60.3412 103.483 61.2219 102.549 62.3028C101.668 63.3971 100.921 64.5981 100.32 65.8792C99.0527 68.388 98.0919 71.2171 95.9434 73.1521C94.8892 74.1396 93.5414 74.7401 92.1002 74.8736C90.7123 74.9536 89.3244 74.6601 88.0967 74.0195C85.8014 72.7384 83.8931 70.8702 82.572 68.5882C81.4244 66.4397 80.4502 64.2111 79.6495 61.9158C78.9022 59.8074 77.9281 57.7923 76.7537 55.8974C75.6594 54.1759 74.1381 52.7614 72.3366 51.7872C69.1873 50.1191 65.4374 50.0124 62.1946 51.4936C59.7125 52.5212 57.5106 54.1092 55.7491 56.1376C54.6548 57.432 53.8275 58.94 53.3337 60.5547C52.9868 61.6623 52.9467 62.2895 52.8933 62.2762C52.92 61.6756 53.0268 61.0885 53.2003 60.5147C53.6406 58.8466 54.4413 57.2986 55.5356 55.9641C57.2971 53.869 59.5123 52.2142 62.0345 51.1333C65.384 49.5586 69.2807 49.6387 72.5635 51.3602C74.4451 52.361 76.0464 53.8156 77.2074 55.6038C78.4218 57.5254 79.4093 59.5805 80.1833 61.7157C80.9973 63.9709 81.9715 66.1595 83.1058 68.2679C84.3736 70.4565 86.2285 72.2447 88.4437 73.4457C89.578 74.0329 90.8457 74.3131 92.1135 74.233C93.4079 74.0996 94.6223 73.5525 95.5698 72.6584C97.5448 70.8568 98.5056 68.1345 99.7734 65.5856C100.387 64.2512 101.175 62.9968 102.095 61.8491C103.083 60.7015 104.297 59.7673 105.658 59.1001C108.434 57.6856 111.664 57.4187 114.639 58.3661C117.669 59.367 119.844 61.7023 121.859 63.8108C123.674 66.0394 125.956 67.8676 128.531 69.1487C129.799 69.6825 131.187 69.8426 132.535 69.6158C133.842 69.3489 135.07 68.7617 136.098 67.9076C138.086 66.1728 139.634 63.9709 140.582 61.5022C142.57 56.6847 144.318 51.9206 146.987 48.0106C148.215 46.0757 149.789 44.3942 151.631 43.0197C153.352 41.7653 155.368 40.9913 157.489 40.7645C159.411 40.5643 161.346 40.7645 163.174 41.365C164.015 41.6185 164.842 41.9254 165.643 42.2858C168.846 43.8471 171.648 46.129 173.823 48.9581C174.864 50.3193 175.705 51.8406 176.292 53.4553C176.439 53.8957 176.546 54.336 176.639 54.7898C176.639 54.8698 176.626 54.9499 176.612 55.0433Z" fill="#FB5C77"/>
<path d="M45.5004 43.9272C45.5004 44.114 44.8865 44.3942 44.0591 44.5544C43.2318 44.7145 42.5245 44.6878 42.4978 44.5544C42.4711 44.4209 43.0983 44.0873 43.9257 43.9272C44.7531 43.767 45.4336 43.7404 45.5004 43.9272Z" fill="#499B62"/>
<path d="M47.6889 59.3403C47.7689 59.5272 47.2885 59.9142 46.6079 60.2344C45.9274 60.5547 45.2735 60.6615 45.2735 60.488C45.2735 60.3145 45.6872 59.9275 46.3677 59.6072C47.0483 59.2869 47.6088 59.2069 47.6889 59.3403Z" fill="#499B62"/>
<path d="M50.4246 76.2748C50.4246 76.4617 49.9842 76.7953 49.3036 77.0355C48.623 77.2757 47.9691 77.3157 47.9691 77.1422C47.9691 76.9688 48.4095 76.6218 49.0901 76.3816C49.7707 76.1414 50.3579 76.1014 50.4246 76.2748Z" fill="#499B62"/>
<path d="M53.7074 92.8755C53.7074 93.0624 53.1869 93.4093 52.3729 93.6362C51.5589 93.8631 50.9584 93.9298 50.905 93.743C50.8516 93.5561 51.4121 93.2225 52.1594 92.9823C52.9067 92.7421 53.6406 92.7021 53.7074 92.8755Z" fill="#499B62"/>
<path d="M147 13.1142C147.521 12.9274 148.068 12.7939 148.615 12.7405C149.683 12.5671 151.284 12.3269 153.219 12.0466C157.222 11.4861 162.841 10.7121 169.58 9.9248H169.9V10.2451C170.42 15.9299 171.034 22.4688 171.675 29.4081V29.7017V30.0353H171.341L149.229 32.7043H148.922V32.4107C148.308 26.6057 147.788 21.7349 147.414 18.2786C147.254 16.6505 147.134 15.3561 147.027 14.3686C146.974 13.9282 146.947 13.4745 146.947 13.0341C147.054 13.5012 147.134 13.9683 147.187 14.4487C147.334 15.4362 147.507 16.7573 147.734 18.4521C148.175 21.895 148.775 26.6724 149.509 32.4107L149.176 32.1438L171.288 29.328L170.981 29.7017V29.4215C170.367 22.4822 169.793 15.9299 169.286 10.2451L169.633 10.5253L147 13.1142Z" fill="#499B62"/>
<path d="M167.551 16.477C167.551 16.6905 163.748 16.6772 159.104 17.1843C154.46 17.6914 150.737 18.5188 150.683 18.2652C156.115 16.4904 161.866 15.8898 167.551 16.477Z" fill="#499B62"/>
<path d="M167.791 21.4413C167.791 21.6414 164.242 21.7749 159.905 22.2019C155.568 22.629 152.045 23.1627 152.005 22.9626C154.54 22.1485 157.169 21.6548 159.838 21.508C162.48 21.1343 165.149 21.1077 167.791 21.4413Z" fill="#499B62"/>
<path d="M162.494 25.765C161.052 26.3122 159.531 26.6191 157.983 26.6858C156.475 26.9927 154.94 27.0728 153.406 26.926C154.847 26.3922 156.368 26.0853 157.903 26.0052C159.411 25.6983 160.959 25.6182 162.494 25.765Z" fill="#499B62"/>
<path d="M419.66 27.313C371.218 12.5537 330.344 -0.0570709 275.537 0.289892L267.156 86.5369C324.152 91.5812 343.221 95.3177 395.826 114.361L419.66 27.313Z" fill="#499B62"/>
<path d="M419.66 27.313C371.218 12.5537 330.344 -0.0570709 275.537 0.289892L267.156 86.5369C324.152 91.5812 343.221 95.3177 395.826 114.361L419.66 27.313Z" fill="#F5F5F5"/>
<path d="M309.993 42.0856L312.128 23.7899C306.803 23.2562 301.479 24.7374 297.195 27.9268C291.43 32.1437 288.027 38.8561 288.014 45.9956C287.987 46.8897 288.014 47.7704 288.081 48.6645L309.432 46.2625L309.993 42.0856Z" fill="#CD71E6"/>
<path d="M332.078 39.0964C330.01 31.8769 324.178 26.3388 316.852 24.644L316.212 24.5106L315.798 24.4172L314.543 24.2303H314.437L312.328 42.4459L311.821 46.7429L331.998 54.1092C332.505 52.5879 332.852 51.0132 333.039 49.4252C333.44 45.9422 333.106 42.4326 332.078 39.0964Z" fill="#4FD5ED"/>
<path d="M310.3 48.798L288.948 51.2C289.842 61.5555 297.395 70.1362 307.537 71.3906C317.679 72.645 327.194 66.0527 330.53 56.1776L310.353 48.8113" fill="#529BF2"/>
<path d="M400.937 43.7003C400.283 43.5001 399.656 43.2466 399.056 42.9397C397.868 42.3925 396.133 41.6052 393.971 40.7378C388.366 38.3891 382.628 36.3741 376.783 34.706C370.938 33.0245 364.986 31.6901 358.981 30.7026C356.686 30.3289 354.804 30.062 353.51 29.8885C352.829 29.8351 352.162 29.7284 351.508 29.5416C352.189 29.5149 352.869 29.5416 353.55 29.6216C354.885 29.715 356.739 29.9152 359.061 30.2221C371.178 31.8635 383.002 35.2398 394.171 40.2307C396.307 41.1915 398.015 42.0189 399.176 42.6327C399.79 42.9263 400.377 43.2866 400.937 43.7003Z" fill="black"/>
<path d="M399.469 52.6679C398.829 52.4544 398.188 52.2009 397.588 51.894C396.4 51.3602 394.665 50.5595 392.503 49.7054C381.28 44.9814 369.537 41.6319 357.513 39.7236C355.218 39.3499 353.337 39.083 352.042 38.9095C351.362 38.8428 350.694 38.7227 350.04 38.5626C350.721 38.5225 351.402 38.5492 352.082 38.6426C353.417 38.7227 355.272 38.9229 357.593 39.2298C363.639 40.0572 369.63 41.3116 375.502 42.993C381.374 44.6745 387.125 46.7696 392.703 49.2517C394.839 50.2125 396.547 51.0399 397.708 51.6537C398.322 51.9206 398.922 52.2676 399.469 52.6679Z" fill="black"/>
<path d="M398.001 61.7023C397.347 61.5022 396.72 61.2486 396.12 60.9417C394.932 60.4079 393.197 59.6072 391.035 58.7398C385.431 56.3911 379.692 54.3627 373.847 52.6679C367.989 50.9999 362.051 49.6654 356.045 48.6645C353.75 48.3042 351.882 48.024 350.574 47.8505C349.894 47.7971 349.226 47.6904 348.572 47.5035C349.253 47.4768 349.934 47.5035 350.614 47.5836C351.949 47.677 353.804 47.8772 356.126 48.1841C362.171 49.0115 368.163 50.2659 374.034 51.9473C379.906 53.6154 385.657 55.7105 391.236 58.206C393.371 59.1668 395.079 59.9942 396.24 60.6081C396.867 60.9016 397.454 61.2753 398.001 61.7023Z" fill="black"/>
<path d="M395.065 70.71C394.438 70.4965 393.824 70.2429 393.237 69.9494C392.09 69.4022 390.408 68.6149 388.326 67.7608C377.464 63.0501 366.067 59.6873 354.377 57.7656C352.135 57.392 350.374 57.1251 349.04 56.9516C348.386 56.8982 347.732 56.7781 347.091 56.6046C347.758 56.5646 348.426 56.5913 349.08 56.6847C350.347 56.7648 352.176 56.9649 354.417 57.2852C360.302 58.1126 366.121 59.367 371.832 61.0484C377.544 62.7432 383.122 64.8517 388.527 67.3471C390.595 68.3079 392.25 69.1353 393.357 69.7492C393.958 70.0027 394.532 70.3363 395.065 70.71Z" fill="black"/>
<path d="M388.687 77.8895C388.126 77.716 387.579 77.5025 387.045 77.2356L382.628 75.2739C372.967 70.8969 362.705 67.961 352.176 66.5865L347.385 65.9193C346.798 65.8659 346.21 65.7592 345.637 65.6124C346.224 65.5456 346.824 65.5456 347.411 65.6124C348.559 65.6124 350.201 65.8259 352.229 66.0527C362.851 67.1737 373.207 70.1362 382.828 74.7802C384.683 75.6609 386.151 76.4082 387.165 76.9554C387.699 77.2089 388.22 77.5159 388.687 77.8895Z" fill="black"/>
<path d="M367.162 78.9037C366.001 78.7569 364.853 78.5167 363.719 78.1964C361.61 77.7027 358.688 77.0621 355.432 76.515C352.176 75.9679 349.2 75.5408 347.051 75.1805C345.877 75.0738 344.716 74.8736 343.582 74.58C344.756 74.4866 345.944 74.5266 347.105 74.6868C349.28 74.8736 352.269 75.1939 355.552 75.7677C358.354 76.2481 361.116 76.8753 363.839 77.6627C364.986 77.9429 366.107 78.3566 367.162 78.9037Z" fill="black"/>
<path d="M283.877 10.4586L284.998 10.3919L288.334 10.2851C291.27 10.2851 295.541 10.2851 300.985 10.5653C316.051 11.5662 330.957 14.2485 345.423 18.5722L345.663 18.6522V18.9058C342.327 38.0288 338.35 60.7549 334.107 85.0689C333.933 86.0565 333.76 87.044 333.586 88.0048V88.3784L333.213 88.285C323.444 85.7228 313.543 83.6811 303.547 82.1598C293.979 80.6919 284.865 79.651 276.351 79.1172H276.017V78.7969C278.352 58.3928 280.314 41.3116 281.689 29.288C282.383 23.3362 282.943 18.6122 283.317 15.4095C283.504 13.8348 283.664 12.6204 283.757 11.7664C283.757 11.3794 283.851 11.0724 283.877 10.8322C283.904 10.592 283.877 10.5253 283.877 10.5386C283.891 10.6454 283.891 10.7655 283.877 10.8723C283.877 11.1125 283.877 11.4327 283.784 11.8331C283.704 12.7005 283.57 13.9415 283.41 15.5429C283.077 18.799 282.569 23.5498 281.942 29.5015C280.608 41.5118 278.793 58.5263 276.604 78.877L276.311 78.5434C284.838 79.0505 293.993 80.078 303.574 81.5326C313.583 83.0539 323.524 85.0823 333.319 87.6445L332.892 87.9247C333.066 86.9639 333.239 85.9764 333.413 84.9889C337.697 60.6748 341.7 37.9621 345.063 18.8524L345.263 19.186C330.851 14.849 315.998 12.1133 300.985 11.0057C295.567 10.6454 291.27 10.552 288.388 10.5653H283.904L283.877 10.4586Z" fill="black"/>
<path d="M314.53 260.846C262.793 274.537 212.923 273.497 158.57 260.846L152.191 161.454C208.359 172.384 264.741 170.996 314.503 159.106L314.53 260.846Z" fill="#499B62"/>
<path d="M314.53 260.846C262.793 274.537 212.923 273.497 158.57 260.846L152.191 161.454C208.359 172.384 264.741 170.996 314.503 159.106L314.53 260.846Z" fill="#F5F5F5"/>
<path d="M306.51 245.699C306.403 245.766 306.296 245.82 306.176 245.86L305.202 246.273C304.335 246.62 303.08 247.181 301.412 247.781C296.715 249.529 291.937 251.024 287.093 252.265C271.053 256.295 254.545 258.177 238.011 257.87C221.491 257.536 205.037 255.775 188.823 252.612C182.591 251.424 177.586 250.33 174.144 249.529C172.422 249.142 171.088 248.809 170.14 248.582L169.113 248.315C168.886 248.248 168.766 248.208 168.779 248.195H169.139L170.18 248.395L174.184 249.209C177.64 249.93 182.671 250.957 188.863 252.065C205.063 255.094 221.491 256.776 237.971 257.123C254.452 257.429 270.906 255.641 286.933 251.785C293.058 250.237 297.943 248.689 301.279 247.501C302.96 246.954 304.228 246.433 305.109 246.167L306.11 245.82C306.23 245.739 306.363 245.699 306.51 245.699Z" fill="#1B1D1B"/>
<path d="M230.485 249.743C223.933 251.518 216.993 251.291 210.575 249.076V213.712C217.14 212.378 223.919 212.378 230.485 213.712V249.743Z" fill="#565090"/>
<path d="M262.646 247.648C262.632 247.554 262.632 247.461 262.646 247.368C262.646 247.167 262.646 246.914 262.646 246.607C262.646 245.886 262.646 244.899 262.552 243.644C262.552 241.042 262.432 237.319 262.339 232.662C262.205 223.32 262.005 210.149 261.778 194.923L262.045 195.243C255.239 193.909 248.233 193.909 241.428 195.243L241.708 194.909V195.603C241.921 216.501 242.122 235.384 242.255 248.862L242.055 248.622C244.911 249.249 247.82 249.596 250.742 249.689C252.944 249.73 255.133 249.543 257.295 249.142C258.656 248.875 259.99 248.528 261.298 248.088L262.299 247.741C262.419 247.688 262.539 247.648 262.672 247.634L262.352 247.781L261.338 248.222C260.03 248.715 258.696 249.116 257.335 249.409C255.159 249.863 252.944 250.076 250.729 250.063C247.78 250.023 244.831 249.703 241.948 249.102H241.761V248.835C241.561 235.357 241.294 216.488 241.001 195.59V194.589H241.294C248.18 193.228 255.279 193.228 262.165 194.589L262.432 194.656V194.923C262.552 210.216 262.646 223.414 262.726 232.835C262.726 237.466 262.726 241.162 262.726 243.764C262.726 244.992 262.726 245.953 262.726 246.66C262.726 246.954 262.726 247.207 262.726 247.408C262.726 247.608 262.659 247.648 262.646 247.648Z" fill="#FF5B79"/>
<path d="M293.259 243.498C287.921 246.38 280.915 246.767 273.335 246.327V187.903C279.887 186.329 286.706 186.329 293.259 187.903V243.498Z" fill="#565090"/>
<path d="M198.898 246.86C198.898 246.86 198.898 246.313 198.831 245.352C198.765 244.392 198.831 242.964 198.751 241.269C198.751 237.719 198.658 232.795 198.604 226.937L198.791 227.217C192.706 224.748 186.167 223.667 179.615 224.028L179.935 223.681C179.935 230.98 179.935 237.799 179.935 243.604L179.762 243.337C182.244 244.338 184.819 245.072 187.448 245.526C189.81 245.953 191.879 246.193 193.6 246.367L197.604 246.7C198.084 246.727 198.551 246.78 199.018 246.86C198.551 246.887 198.071 246.887 197.604 246.86C196.669 246.86 195.322 246.86 193.6 246.687C191.879 246.513 189.784 246.367 187.408 245.98C184.726 245.579 182.084 244.859 179.561 243.858L179.388 243.778V243.578C179.388 237.773 179.388 230.953 179.388 223.654V223.334H179.735C186.394 222.96 193.04 224.094 199.192 226.656L199.392 226.723V226.937C199.392 232.875 199.272 237.866 199.232 241.469C199.232 243.137 199.232 244.472 199.152 245.473C199.112 245.94 199.018 246.393 198.898 246.86Z" fill="#FF5B79"/>
<path d="M208.239 195.176C206.945 195.376 205.65 195.47 204.343 195.416C201.927 195.416 198.591 195.416 194.921 195.19C191.251 194.963 187.942 194.629 185.58 194.309C184.286 194.202 182.991 193.975 181.737 193.615C183.031 193.588 184.339 193.655 185.62 193.828C188.022 194.015 191.332 194.282 194.961 194.496C198.591 194.709 201.941 194.843 204.303 194.923C205.624 194.896 206.932 194.989 208.239 195.176Z" fill="#FDCF2F"/>
<path d="M205.263 199.527C204.129 199.647 202.981 199.647 201.847 199.527C199.739 199.42 196.83 199.233 193.613 198.993C190.397 198.753 187.488 198.486 185.393 198.259C184.259 198.206 183.125 198.032 182.017 197.752C183.151 197.632 184.299 197.632 185.433 197.752C187.555 197.859 190.451 198.046 193.667 198.286C196.883 198.526 199.779 198.793 201.874 199.02C203.022 199.073 204.156 199.247 205.263 199.527Z" fill="#FDCF2F"/>
<path d="M212.55 205.225C212.55 205.225 212.55 204.771 212.55 203.984C212.55 203.196 212.616 201.982 212.683 200.541C212.817 197.525 213.017 193.281 213.27 188.064L213.524 188.344C201.207 188.451 188.889 187.77 176.652 186.289L177.039 185.968V186.502V187.063L176.973 188.184C176.973 188.931 176.893 189.678 176.839 190.412C176.759 191.893 176.679 193.348 176.586 194.776C176.412 197.645 176.252 200.421 176.092 203.076L175.812 202.729C186.487 204.064 195.682 204.598 202.207 204.851L209.854 205.078L211.856 205.145H212.59C212.363 205.158 212.149 205.158 211.922 205.145C211.469 205.145 210.748 205.145 209.854 205.212C208.066 205.212 205.464 205.212 202.194 205.212C195.655 205.078 186.421 204.598 175.732 203.33H175.425V203.01C175.571 200.341 175.732 197.578 175.892 194.709C175.972 193.281 176.052 191.827 176.145 190.345L176.265 188.117V186.996V186.435V185.902L176.652 185.581C188.903 187.063 201.233 187.81 213.577 187.837H213.844V188.104C213.484 193.361 213.19 197.658 212.977 200.701C212.87 202.116 212.777 203.25 212.71 204.077C212.696 204.464 212.643 204.838 212.55 205.225Z" fill="#FDCF2F"/>
<path d="M217.1 212.711C216.086 211.644 215.219 210.456 214.525 209.148C213.644 207.961 212.977 206.639 212.55 205.225C213.564 206.292 214.431 207.48 215.125 208.788C216.006 209.962 216.673 211.297 217.1 212.711Z" fill="#FDCF2F"/>
<path d="M0.915619 83.3608L17.8234 185.688C17.8234 185.688 43.6454 234.023 112.237 244.912L101.175 153.581C101.175 153.581 37.7337 133.937 0.915619 83.3608Z" fill="#499B62"/>
<path d="M0.915619 83.3608L17.8234 185.688C17.8234 185.688 43.6454 234.023 112.237 244.912L101.175 153.581C101.175 153.581 37.7337 133.937 0.915619 83.3608Z" fill="#F5F5F5"/>
<path d="M103.39 237.599L102.963 237.493L101.628 237.132L96.7975 235.651C94.7024 234.984 92.1002 234.316 89.2044 233.115L84.547 231.341C82.8789 230.713 81.1308 230.006 79.3559 229.205C75.7929 227.577 71.8295 225.896 67.7994 223.627C63.7693 221.359 59.4723 218.917 55.0952 216.128C45.6605 209.936 37.0798 202.503 29.6068 194.042C26.0971 190.105 23.0278 185.795 20.4123 181.218L12.6723 131.175C11.7382 124.93 10.9776 119.925 10.4571 116.416L9.89663 112.412L9.76318 111.385C9.74984 111.265 9.74984 111.145 9.76318 111.025C9.80322 111.131 9.82991 111.251 9.84325 111.372L10.0434 112.399L10.724 116.402C11.2978 119.899 12.0585 124.903 13.1394 131.082C15.1411 143.652 17.9435 161.161 21.1462 181.084V180.991C23.7351 185.515 26.7911 189.758 30.2473 193.668C37.6937 202.089 46.221 209.482 55.6023 215.674C59.9527 218.476 64.1029 221.105 68.2131 223.2C72.3233 225.295 76.1532 227.204 79.7029 228.832C81.4644 229.699 83.2126 230.38 84.854 231.007L89.4712 232.822C92.3404 234.036 94.9292 234.757 96.9977 235.491L101.788 237.092L103.029 237.519C103.15 237.533 103.27 237.559 103.39 237.599Z" fill="#529BF2"/>
<path d="M97.358 207.894C97.358 207.894 97.358 207.974 97.1311 208.107L96.3972 208.694L93.5547 210.91L82.7989 219.17L82.6387 219.304L82.5053 219.117C78.8755 214.112 74.405 207.921 69.334 200.888L69.7344 200.955L59.6324 208.161L59.2988 208.401L59.152 208.001C55.1486 197.325 50.7849 185.315 46.1276 172.677L44.2593 167.593H44.8865L36.6661 183.927L36.3058 184.634L36.0523 183.887C28.8862 163.256 22.8143 145.721 18.8643 134.338H19.2246C18.1437 138.902 17.2896 142.491 16.7024 145.013C16.4089 146.214 16.1686 147.149 16.0085 147.816L15.8217 148.536C15.8083 148.617 15.7683 148.697 15.7283 148.777V148.523C15.7283 148.336 15.8083 148.096 15.8617 147.803L16.4622 144.973C17.0094 142.451 17.7967 138.848 18.8109 134.298L18.9577 133.657L19.1846 134.284C23.188 145.641 29.3666 163.136 36.6395 183.727H36.0256L44.2326 167.393L44.5929 166.672L44.8732 167.419L46.7414 172.504C51.372 185.154 55.7758 197.151 59.6991 207.854L59.2187 207.707L69.3607 200.554L69.5876 200.394L69.7611 200.621L82.7989 218.877H82.4919L93.3946 210.776L96.3037 208.641L97.0644 208.107L97.358 207.894Z" fill="#FB5C77"/>
<path d="M94.996 158.825C94.5022 158.772 94.0218 158.665 93.5547 158.505C92.6473 158.251 91.3262 157.851 89.7248 157.317C85.5612 155.929 81.4644 154.315 77.461 152.487C73.4309 150.672 69.4942 148.657 65.6776 146.441C64.223 145.587 63.0087 144.867 62.2613 144.346C61.8343 144.106 61.434 143.812 61.0737 143.479C61.5407 143.639 61.9945 143.852 62.4081 144.119L65.9311 146.014C68.907 147.602 73.0572 149.737 77.7546 151.859C82.4519 153.981 86.789 155.676 89.9517 156.864C91.4329 157.397 92.6206 157.864 93.7015 158.198C94.1552 158.345 94.5956 158.558 94.996 158.825Z" fill="#529BF2"/>
<path d="M97.7183 163.069C96.5973 163.002 95.4897 162.815 94.4088 162.482C91.7799 161.841 89.1776 161.067 86.6288 160.16C84.08 159.252 81.5845 158.198 79.1424 157.024C78.1015 156.597 77.1274 156.036 76.2199 155.382C77.3008 155.689 78.3551 156.09 79.3559 156.583C81.2642 157.371 83.9065 158.438 86.869 159.506C89.8315 160.573 92.5539 161.414 94.5422 162.015C95.6365 162.255 96.6907 162.615 97.7183 163.069Z" fill="#529BF2"/>
<path d="M70.6952 200.915C70.6952 201.769 70.1748 202.449 69.5342 202.449C68.8937 202.449 68.3866 201.769 68.3866 200.915C68.3866 200.06 68.907 199.38 69.5342 199.38C70.1614 199.38 70.6952 200.074 70.6952 200.915Z" fill="#FFA100"/>
<path d="M44.4461 170.102C45.08 170.102 45.5938 169.414 45.5938 168.567C45.5938 167.719 45.08 167.032 44.4461 167.032C43.8123 167.032 43.2985 167.719 43.2985 168.567C43.2985 169.414 43.8123 170.102 44.4461 170.102Z" fill="#FFA100"/>
<path d="M20.2521 134.818C20.2521 135.659 19.7317 136.353 19.1045 136.353C18.4773 136.353 17.9568 135.659 17.9568 134.818C17.9568 133.977 18.4639 133.283 19.1045 133.283C19.745 133.283 20.2521 133.977 20.2521 134.818Z" fill="#FFA100"/>
<path d="M448.444 101.563L439.971 205.519C439.971 205.519 415.189 249.97 347.024 251.665L355.445 147.002C355.445 147.002 414.922 144.587 448.444 101.563Z" fill="#F5F5F5"/>
<path d="M447.11 96.1451C444.895 88.9523 439.503 78.6902 426.692 76.5551L411.586 216.381C411.586 216.381 440.024 210.71 440.785 195.123C440.851 193.788 446.536 124.276 447.964 107.048C448.391 103.391 448.097 99.6815 447.11 96.1451Z" fill="#F5F5F5"/>
<g opacity="0.8">
<path opacity="0.8" d="M446.269 128.226L441.705 184.314C400.937 232.435 364.626 228.965 364.626 228.965C365.267 224.214 365.947 219.397 368.176 215.1C370.404 210.803 374.568 207.24 379.359 207.093C381.627 207.026 383.869 207.707 386.138 207.614C392.357 207.347 396.867 201.355 398.655 195.417C400.443 189.478 400.644 183.046 403.112 177.348C404.3 174.345 406.395 171.796 409.117 170.048C411.907 168.327 415.403 168.247 418.259 169.848C421.301 171.77 423.063 175.933 426.332 176.841C429.602 177.748 433.018 175.079 434.339 171.89C435.66 168.7 435.46 165.137 435.527 161.681C435.78 149.724 439.517 138.088 446.269 128.226Z" fill="white"/>
</g>
<path d="M446.376 128.066L441.719 184.287C441.705 184.3 441.705 184.3 441.705 184.314C400.937 232.435 364.626 228.965 364.626 228.965C365.267 224.214 365.947 219.397 368.176 215.1C370.404 210.803 374.568 207.24 379.359 207.093C381.627 207.026 383.869 207.707 386.138 207.614C392.357 207.347 396.867 201.355 398.655 195.417C400.443 189.478 400.644 183.046 403.112 177.348C404.3 174.345 406.395 171.796 409.117 170.048C411.907 168.327 415.403 168.247 418.259 169.848C421.301 171.77 423.063 175.933 426.332 176.841C429.602 177.748 433.018 175.079 434.339 171.89C435.66 168.7 435.46 165.137 435.527 161.681C435.78 149.724 439.517 138.088 446.269 128.226C446.309 128.172 446.336 128.119 446.376 128.066Z" fill="#FDCF2F"/>
<path d="M388.633 191.12C388.633 192.454 387.993 193.455 387.205 193.455C386.418 193.455 385.791 192.414 385.791 191.12C385.791 189.825 386.418 188.784 387.205 188.784C387.993 188.784 388.633 189.839 388.633 191.12Z" fill="#499B62"/>
<path d="M405.741 147.909C405.741 149.244 405.101 150.245 404.313 150.245C403.526 150.245 402.899 149.19 402.899 147.909C402.899 146.628 403.526 145.574 404.313 145.574C405.101 145.574 405.741 146.615 405.741 147.909Z" fill="#499B62"/>
<path d="M445.562 133.083C445.509 133.283 445.428 133.484 445.335 133.67L444.561 135.365C443.84 136.873 442.84 139.008 441.572 141.704L430.736 164.27L430.589 164.577L430.296 164.39L404.607 148.136L405.114 147.976C404.78 148.803 404.407 149.698 404.046 150.645L387.459 191.226L387.339 191.507L387.085 191.36C380.68 187.757 375.449 184.861 371.819 182.886C369.991 181.898 368.576 181.138 367.602 180.644L366.494 180.11L366.107 179.937C368.149 180.617 370.098 181.511 371.952 182.606C375.636 184.501 380.893 187.33 387.339 190.879L386.965 191.013L403.406 150.325C403.766 149.431 404.14 148.537 404.474 147.656L404.634 147.269L404.981 147.496L430.629 163.83L430.189 163.95C434.739 154.702 438.556 146.975 441.252 141.504L444.441 135.272L445.295 133.63C445.375 133.43 445.455 133.257 445.562 133.083Z" fill="#565090"/>
</g>
<defs>
<clipPath id="clip0">
<rect width="447.529" height="378.603" fill="white" transform="translate(0.915649 0.27655)"/>
</clipPath>
</defs>
</svg>
