<?xml version="1.0" encoding="utf-8"?>
<!-- Generator: Adobe Illustrator 27.5.0, SVG Export Plug-In . SVG Version: 6.00 Build 0)  -->
<svg version="1.1" xmlns="http://www.w3.org/2000/svg" xmlns:xlink="http://www.w3.org/1999/xlink" x="0px" y="0px"
	 viewBox="0 0 750 500" style="enable-background:new 0 0 750 500;" xml:space="preserve">
<g id="BACKGROUND">
</g>
<g id="OBJECTS">
	<g>
		<g>
			<g>
				<g>
					<path style="fill:#1A1A1A;" d="M461.434,427.169l-0.173,9.195c-0.029,1.553-0.99,2.93-2.442,3.481
						c-7.524,2.859-30.484,11.075-35.285,6.828c-5.763-5.098,28.813-18.84,28.813-18.84L461.434,427.169z"/>
				</g>
				<g>
					<path style="fill:#1A1A1A;" d="M505.78,427.169l0.173,9.195c0.029,1.553,0.99,2.93,2.442,3.481
						c7.524,2.859,30.484,11.075,35.285,6.828c5.763-5.098-28.813-18.84-28.813-18.84L505.78,427.169z"/>
				</g>
			</g>
			<path style="fill:#333333;" d="M510.36,237.444l8.57,190.907c-8.57,2.364-14.481,0.296-14.481,0.296l-18.914-161.946h-3.859
				l-18.913,161.946c0,0-5.91,2.069-14.481-0.296l8.57-190.907H510.36z"/>
		</g>
		<g>
			<g>
				<g>
					<path style="fill:#B43810;" d="M563.535,181.591c0,0,25.713-4.43,22.463-2.36c-3.25,2.06-11.521,4.72-11.521,4.72
						s4.275,0.89,0.735,3.25c0,0,3.54,0.745,0.59,2.816c0,0,2.805,0.59,0.445,2.215c-2.37,1.625-4.731,1.915-4.731,1.915
						s-0.362,0.942-1.025,2.567l-0.124-0.052c-9.844-4.223-11.945-7.795-12.256-8.426l0.103-0.145c0,0,2.07-20.682,3.551-15.072
						C563.245,178.631,563.535,181.591,563.535,181.591z"/>
					<g>
						<g>
							<path style="fill:#590C02;" d="M572.254,184.394c-1.66,0.633-3.272,1.338-4.844,2.093c-0.775,0.393-1.561,0.78-2.254,1.252
								c-0.326,0.216-0.721,0.516-0.806,0.684c-0.02,0.021-0.018,0.03-0.001-0.013c-0.005-0.025-0.006-0.058-0.019-0.12
								c-0.042-0.059-0.051-0.064-0.042-0.068c-0.002-0.006-0.02,0.002,0.027,0.01c0.098,0.04,0.301,0.069,0.488,0.082
								c1.631,0.073,3.418-0.228,5.146-0.437c1.741-0.244,3.493-0.48,5.261-0.67c-1.679,0.582-3.383,1.084-5.119,1.465
								c-1.747,0.371-3.466,0.734-5.372,0.673c-0.251-0.029-0.493-0.046-0.806-0.173c-0.064-0.015-0.167-0.08-0.259-0.152
								c-0.088-0.062-0.178-0.138-0.25-0.311c-0.081-0.16-0.086-0.299-0.059-0.436c0.018-0.158,0.066-0.248,0.111-0.319
								c0.386-0.587,0.775-0.77,1.175-1.038c0.802-0.473,1.617-0.846,2.457-1.165C568.757,185.101,570.492,184.64,572.254,184.394z"
								/>
						</g>
						<g>
							<path style="fill:#590C02;" d="M569.54,188.324c-1.008,0.651-2.098,1.263-2.859,2.022c-0.089,0.093-0.153,0.191-0.188,0.263
								c-0.023,0.083,0.014,0.021-0.019-0.042c-0.041-0.029,0.256,0.098,0.504,0.096c0.525,0.053,1.115,0.03,1.693-0.02
								c1.166-0.074,2.346-0.228,3.533-0.344c1.187-0.126,2.381-0.248,3.599-0.284c-1.129,0.458-2.287,0.803-3.464,1.08
								c-1.177,0.281-2.372,0.483-3.598,0.58c-0.617,0.03-1.232,0.059-1.898-0.044c-0.164-0.025-0.34-0.07-0.519-0.129
								c-0.185-0.087-0.394-0.135-0.601-0.431c-0.215-0.317-0.104-0.714,0.016-0.886c0.123-0.184,0.256-0.314,0.388-0.423
								C567.193,188.952,568.35,188.6,569.54,188.324z"/>
						</g>
						<g>
							<path style="fill:#590C02;" d="M570.405,191.001c-0.317,0.251-0.64,0.469-0.923,0.715c-0.275,0.218-0.568,0.541-0.568,0.689
								c0.028,0.046,0.003-0.034,0.08,0.04c0.078,0.05,0.231,0.1,0.382,0.135c0.313,0.075,0.672,0.118,1.033,0.128
								c1.464,0.079,2.981-0.079,4.58-0.034c-0.704,0.391-1.458,0.653-2.234,0.832c-0.776,0.185-1.578,0.268-2.403,0.235
								c-0.412-0.034-0.83-0.081-1.262-0.226c-0.216-0.084-0.435-0.171-0.663-0.364c-0.111-0.103-0.23-0.231-0.295-0.422
								c-0.069-0.188-0.049-0.407,0.013-0.562c0.286-0.59,0.712-0.706,1.081-0.887C569.614,191.136,570.003,191.04,570.405,191.001z
								"/>
						</g>
					</g>
				</g>
				<g>
					<path style="fill:#CCE5E5;" d="M570.367,196.663c-9.844-4.223-11.945-7.795-12.256-8.426l-3.105,4.606l-17.183,25.392
						c-3.602-8.726-13.881-52.305-31.913-54.076l-0.29,28.953c0,0,13.881,44.925,29.253,50.836
						c11.78,4.534,27.038-27.162,33.507-42.192c0.88-2.029,1.594-3.747,2.112-5.041L570.367,196.663z"/>
					<g>
						<path style="fill:#9BBFBE;" d="M533.468,224.663c1.386-2.788,3.032-5.402,4.742-7.972c1.736-2.553,3.537-5.062,5.601-7.395
							c-1.384,2.79-3.031,5.403-4.743,7.972C537.331,219.82,535.529,222.329,533.468,224.663z"/>
					</g>
					
						<path style="fill:none;stroke:#9BBFBE;stroke-width:1.0351;stroke-linecap:round;stroke-linejoin:round;stroke-miterlimit:10;" d="
						M570.367,196.663l0.124,0.052c-0.518,1.294-1.232,3.012-2.112,5.041c-10.859-4.648-13.302-8.861-13.302-8.861l-0.072-0.052
						l3.105-4.606C558.422,188.868,560.523,192.44,570.367,196.663z"/>
				</g>
			</g>
			<g>
				<path style="fill:#CCE5E5;" d="M510.747,165.769c4.342,1.525,7.279,5.592,7.35,10.194c0.275,17.952,0.204,63.198-6.817,66.357
					c-7.119,3.204-24.245,3.959-26.879,3.959c-2.634,0-19.836-0.755-26.955-3.959c-7.016-3.157-7.092-48.337-6.818-66.315
					c0.07-4.619,3.012-8.704,7.374-10.226l26.484-9.235L510.747,165.769z"/>
				<polygon style="fill:#333333;" points="486.922,165.484 483.376,172.134 487.661,224.884 482.661,231.09 477.613,224.884 
					481.898,172.134 478.352,165.484 				"/>
				<g>
					<path style="fill:#9BBFBE;" d="M510.747,165.769c3.244,0.99,5.941,3.65,7.059,6.921c0.288,0.815,0.447,1.671,0.541,2.531
						c0.075,0.874,0.07,1.7,0.1,2.549l0.115,5.064c0.118,6.753,0.051,13.509-0.106,20.264c-0.247,6.751-0.57,13.509-1.322,20.234
						c-0.39,3.36-0.862,6.716-1.576,10.03c-0.376,1.652-0.81,3.296-1.409,4.887c-0.301,0.793-0.643,1.576-1.086,2.304
						c-0.446,0.714-1.002,1.419-1.785,1.767c0.758-0.396,1.253-1.118,1.649-1.846c0.4-0.735,0.703-1.521,0.963-2.317
						c0.518-1.596,0.872-3.242,1.17-4.896c0.608-3.307,0.988-6.655,1.281-10.009c0.585-6.709,0.915-13.445,1.081-20.185
						c0.242-6.738,0.294-13.484,0.347-20.23l0.026-5.06c-0.007-0.838,0.02-1.701-0.028-2.511c-0.065-0.818-0.199-1.634-0.443-2.423
						C516.41,169.662,513.905,166.979,510.747,165.769z"/>
				</g>
			</g>
			<g>
				<polygon style="fill:#999999;" points="487.487,218.675 482.961,218.675 482.047,194.298 488.401,194.298 				"/>
				<g>
					<path style="fill:#B43810;" d="M490.392,215.13c-6.521,0.838-10.6,2.35-12.732,3.354l-0.124-0.248c0,0-5.02-6.801-2.66-15.962
						l-0.093-0.217l4.234-1.853h3.105c0,0,0.89,1.78,8.571,0.6c0,0,3.54,0.145-0.59,3.25c0,0,7.681,0.59,0.29,3.84
						c0,0,6.066,0.445,0.155,3.25C490.548,211.145,494.233,212.915,490.392,215.13z"/>
					<g>
						<g>
							<path style="fill:#CCE5E5;" d="M474.717,202.065c-0.002,0.007-0.003,0.015-0.005,0.022l0.07-0.031L474.717,202.065z"/>
							<path style="fill:#CCE5E5;" d="M477.536,218.235c0,0-5.17-6.999-2.824-16.148l-4.101,1.801l-26.686,11.676l15.092-23.549
								c4.969-8.209,6.345-13.84,5.993-17.69c-0.569-6.211-8.167-8.913-12.577-4.493c-11.459,11.48-35.102,45.37-32.886,54.976
								c2.598,11.283,14.471,20.33,54.386-4.141c0.621-0.383,1.263-0.776,1.905-1.18c0,0,0.58-0.414,1.822-1.004L477.536,218.235z"
								/>
						</g>
						
							<path style="fill:none;stroke:#9BBFBE;stroke-width:1.0351;stroke-linecap:round;stroke-linejoin:round;stroke-miterlimit:10;" d="
							M477.536,218.235l0.124,0.248c-1.242,0.59-1.822,1.004-1.822,1.004c-0.642,0.404-1.284,0.797-1.905,1.18
							c-6.937-8.942-3.323-16.78-3.323-16.78l4.172-1.832l-0.065,0.009C472.357,211.226,477.536,218.235,477.536,218.235z"/>
						<g>
							<path style="fill:#9BBFBE;" d="M437.668,217.98c6.274-2.423,12.413-5.169,18.538-7.94c6.13-2.767,12.191-5.661,18.391-8.327
								c0.263-0.113,0.567,0.008,0.68,0.271c0.113,0.263-0.009,0.567-0.271,0.68c-0.003,0.002-0.007,0.003-0.01,0.004l-0.009,0.004
								c-6.223,2.488-12.375,5.233-18.573,7.842C450.217,213.129,444.003,215.719,437.668,217.98z"/>
						</g>
						<g>
							<path style="fill:#9BBFBE;" d="M419.548,224.808c0.706,2.539,1.854,4.988,3.669,6.853c1.764,1.916,4.173,3.096,6.682,3.654
								c5.093,1.032,10.406,0.067,15.388-1.442c5.043-1.444,9.876-3.579,14.636-5.826l3.547-1.748l3.506-1.836l3.49-1.874
								l3.468-1.921c-4.397,2.939-8.949,5.652-13.656,8.092c-2.354,1.217-4.756,2.348-7.207,3.37
								c-2.442,1.041-4.94,1.966-7.491,2.735c-2.558,0.741-5.171,1.335-7.838,1.617c-2.658,0.27-5.394,0.263-8.026-0.395
								c-2.61-0.677-5.115-2.017-6.872-4.086C421.087,229.945,420.029,227.402,419.548,224.808z"/>
						</g>
						<g>
							<path style="fill:#9BBFBE;" d="M443.925,215.565c0.783-1.439,1.623-2.841,2.432-4.263l2.523-4.204
								c1.683-2.801,3.435-5.559,5.186-8.317l5.34-8.205c0.857-1.381,1.663-2.794,2.409-4.24c0.776-1.432,1.449-2.916,2.074-4.429
								c-0.831,3.176-2.225,6.186-3.794,9.068c-1.609,2.876-3.415,5.581-5.152,8.356c-1.775,2.745-3.55,5.49-5.393,8.191
								l-2.767,4.05C445.829,212.903,444.905,214.252,443.925,215.565z"/>
						</g>
					</g>
				</g>
			</g>
			<g>
				<path style="fill:#0071BC;" d="M490.913,191.047V180.63c0-3.142-2.547-5.689-5.689-5.689l0,0c-3.142,0-5.689,2.547-5.689,5.689
					v10.417C479.535,191.047,484.707,194.593,490.913,191.047z"/>
				<rect x="474.991" y="189.422" style="fill:#2E3192;" width="20.465" height="12.116"/>
			</g>
		</g>
		<g>
			<g>
				<polygon style="fill:#B43810;" points="493.604,162.973 492.612,145.241 471.186,123.372 472.221,162.973 485.224,165.484 				
					"/>
				<polygon style="fill:#A52C0C;" points="492.868,150.896 492.925,150.835 492.612,145.241 471.186,123.372 471.972,153.455 				
					"/>
			</g>
			<g>
				<path style="fill:#B43810;" d="M490.713,101.651h-8.004c-6.353,0-11.504,5.151-11.504,11.504v11.719
					c-3.214,0.127-5.78,2.373-5.78,5.148c0,2.778,2.571,5.026,5.79,5.149c0.103,8.271,6.832,13.174,15.127,13.174h0.739
					c8.36,0,15.137-6.777,15.137-15.137v-20.052C502.216,106.802,497.066,101.651,490.713,101.651z"/>
				<path style="fill:#191610;" d="M470.176,124.998l4.703,2.143l4.656-18.914c0,0,14.924,3.325,24.676-3.325
					c0,0-7.093-15.072-33.025-1.995C471.186,102.908,466.524,107.063,470.176,124.998z"/>
				<g>
					<g>
						<path style="fill:#42210B;" d="M488.77,123.372c0,0.653-0.529,1.182-1.182,1.182c-0.653,0-1.182-0.529-1.182-1.182
							c0-0.653,0.529-1.182,1.182-1.182C488.241,122.19,488.77,122.72,488.77,123.372z"/>
						<path style="fill:#42210B;" d="M495.567,123.372c0,0.653-0.529,1.182-1.182,1.182c-0.653,0-1.182-0.529-1.182-1.182
							c0-0.653,0.529-1.182,1.182-1.182C495.038,122.19,495.567,122.72,495.567,123.372z"/>
					</g>
					
						<polyline style="fill:none;stroke:#7F1D03;stroke-width:1.0351;stroke-linecap:round;stroke-linejoin:round;stroke-miterlimit:10;" points="
						490.543,121.23 493.604,132.386 489.657,133.199 					"/>
					
						<path style="fill:none;stroke:#590C02;stroke-width:1.0351;stroke-linecap:round;stroke-linejoin:round;stroke-miterlimit:10;" d="
						M482.395,132.238c0,0,0.497,10.484,10.143,6.206"/>
					<g>
						
							<line style="fill:none;stroke:#191610;stroke-width:2.0703;stroke-miterlimit:10;" x1="481.604" y1="119.013" x2="488.77" y2="119.013"/>
						<path style="fill:none;stroke:#191610;stroke-width:2.0703;stroke-miterlimit:10;" d="M492.538,118.275
							c0,0,1.256-3.103,5.837-3.62"/>
					</g>
				</g>
			</g>
			<g>
				<g>
					<path style="fill:#CCE5E5;" d="M500.811,168.344c-0.016,0-0.032-0.001-0.048-0.003l-18.174-1.773l-18.077,1.773
						c-0.197,0.02-0.382-0.077-0.479-0.247c-0.097-0.169-0.085-0.38,0.029-0.538l7.092-9.752c0.152-0.207,0.435-0.264,0.655-0.134
						l10.828,6.443l10.829-6.443c0.22-0.131,0.502-0.074,0.655,0.134l7.092,9.752c0.114,0.158,0.126,0.368,0.029,0.538
						C501.153,168.251,500.988,168.344,500.811,168.344z"/>
				</g>
				<g>
					<g>
						<g>
							<path style="fill:#9BBFBE;" d="M493.465,157.67c0.141-0.092,0.332-0.107,0.491-0.032c0.166,0.076,0.249,0.241,0.356,0.363
								l0.623,0.791l1.231,1.592l2.461,3.186l2.426,3.212l0.303,0.402l0.164,0.221c0.076,0.119,0.121,0.258,0.13,0.4
								c0.02,0.285-0.117,0.576-0.354,0.741c-0.21,0.188-0.622,0.162-0.726,0.142l-2.006-0.16c-2.676-0.198-5.343-0.473-8.015-0.709
								l-8.012-0.736l0.1,0l-7.99,0.737c-2.664,0.238-5.325,0.51-7.992,0.71l-2,0.161c-0.061,0.003-0.196,0.027-0.349-0.003
								c-0.142-0.028-0.276-0.092-0.386-0.185c-0.219-0.184-0.333-0.481-0.291-0.762c0.019-0.139,0.077-0.276,0.159-0.385l0.151-0.2
								l0.302-0.401l2.419-3.202l2.453-3.177l1.227-1.588l0.621-0.788c0.107-0.122,0.19-0.287,0.356-0.362
								c0.158-0.074,0.349-0.06,0.489,0.032c-0.148-0.08-0.332-0.077-0.472,0.003c-0.144,0.077-0.211,0.238-0.311,0.373
								l-0.559,0.834l-1.132,1.657l-2.266,3.313l-2.3,3.288l-0.288,0.411l-0.144,0.205c-0.017,0.026-0.024,0.049-0.026,0.076
								c-0.004,0.052,0.021,0.102,0.06,0.132c0.02,0.014,0.041,0.022,0.064,0.025c0.012,0.004,0.045-0.002,0.15-0.014l1.993-0.231
								c2.656-0.323,5.319-0.573,7.979-0.857l7.981-0.83l0.05-0.005l0.05,0.005l8.008,0.827c2.668,0.285,5.341,0.531,8.005,0.854
								l1.999,0.231c0.222,0.027,0.173,0.023,0.242-0.002c0.041-0.025,0.069-0.073,0.069-0.124c0-0.026-0.007-0.052-0.019-0.075
								l-0.13-0.187l-0.289-0.412l-2.307-3.297l-2.272-3.323l-1.136-1.662l-0.56-0.837c-0.1-0.135-0.168-0.297-0.311-0.375
								C493.798,157.592,493.613,157.589,493.465,157.67z"/>
						</g>
					</g>
				</g>
			</g>
		</g>
	</g>
	<g>
		<g>
			<g>
				<path style="fill:#9F7B4A;" d="M644.366,194.891l-1.973-36.771c-7.309-6.138-15.634-0.155-15.634-0.155l-0.216-0.011
					c-1.339,17.509-2.375,47.553,2.816,51.52C629.36,209.474,641.23,216.466,644.366,194.891z"/>
				<path style="fill:#E48047;" d="M637.09,143.006c0.293-1.566,8.311-44.803,4.33-1.547c0,0,12.949-35.54,1.339,7.695
					c0,0,18.953-22.428-0.366,8.967c-7.309-6.138-15.634-0.155-15.634-0.155l-0.216-0.011c0.443-5.786,0.804-9.58,0.804-9.58
					s2.487-35.163,4.193-3.881C631.764,143.122,638.044,103.969,637.09,143.006z"/>
			</g>
			<g>
				<rect x="585.542" y="127.966" style="fill:#333333;" width="18.322" height="16.549"/>
				<polygon style="fill:#1A1A1A;" points="576.995,149.761 586.817,145.89 586.817,126.592 576.995,122.721 				"/>
			</g>
			<g>
				<rect x="626.028" y="94.72" style="fill:#333333;" width="7.536" height="16.826"/>
				<path style="fill:#1A1A1A;" d="M633.564,96.345h-36.118c-2.658,0-4.812-2.154-4.812-4.812l0,0c0-2.658,2.154-4.812,4.812-4.812
					h31.306c2.658,0,4.812,2.155,4.812,4.812V96.345z"/>
			</g>
			<g>
				<path style="fill:#1A1A1A;" d="M686.721,162.543h-84.444c-2.224,0-4.027-1.803-4.027-4.027v-44.549
					c0-2.224,1.803-4.027,4.027-4.027h84.444c2.224,0,4.027,1.803,4.027,4.027v44.549
					C690.748,160.74,688.945,162.543,686.721,162.543z"/>
				<path style="fill:#FC4444;" d="M612.952,118.953c0,2.203-1.786,3.99-3.99,3.99c-2.203,0-3.99-1.786-3.99-3.99
					s1.786-3.99,3.99-3.99C611.165,114.964,612.952,116.75,612.952,118.953z"/>
				<rect x="619.601" y="116.515" style="fill:#333333;" width="64.054" height="39.231"/>
			</g>
			<g>
				
					<rect x="622.925" y="120.948" style="fill:none;stroke:#B3B3B3;stroke-width:1.0351;stroke-linecap:round;stroke-linejoin:round;stroke-miterlimit:10;" width="15.515" height="5.984"/>
				
					<rect x="643.76" y="145.553" style="fill:none;stroke:#B3B3B3;stroke-width:1.0351;stroke-linecap:round;stroke-linejoin:round;stroke-miterlimit:10;" width="15.515" height="5.984"/>
				
					<rect x="622.925" y="129.814" style="fill:none;stroke:#B3B3B3;stroke-width:1.0351;stroke-linecap:round;stroke-linejoin:round;stroke-miterlimit:10;" width="15.515" height="21.723"/>
			</g>
		</g>
		<g>
			<g>
				<g>
					<path style="fill:#B53A0D;" d="M695.476,432.945v7.787c0,1.004-0.814,1.817-1.817,1.817l-33.805,1.773
						c-1.903,0-2.902-2.318-1.542-3.65c2.414-2.365,8.499-4.477,24.161-7.728H695.476z"/>
					<path style="fill:#95CEC4;" d="M668.288,260.952c0,0-3.546,60.287-3.546,71.516c0,11.23,17.731,100.478,17.731,100.478h13.003
						l-5.91-103.433c0,0,21.249-49.77,16.591-83.67L668.288,260.952z"/>
				</g>
				<g>
					<path style="fill:#B53A0D;" d="M651.739,436.492v7.787c0,1.004-0.814,1.817-1.817,1.817l-33.805,1.773
						c-1.903,0-2.902-2.318-1.542-3.649c2.414-2.365,8.499-4.477,24.161-7.728H651.739z"/>
					<g>
						<path style="fill:#95CEC4;" d="M670.652,242.038c0,0-37.236,82.746-37.236,93.976c0,11.23,5.319,100.478,5.319,100.478h13.003
							l6.501-103.433c0,0,54.967-41.373,47.875-91.612L670.652,242.038z"/>
						<g>
							<path style="fill:#599B8E;" d="M658.24,333.059c3.406-2.94,6.687-6.005,9.826-9.209c3.167-3.174,6.201-6.472,9.134-9.849
								c2.916-3.392,5.728-6.87,8.351-10.484c2.631-3.604,5.147-7.295,7.402-11.139c2.278-3.83,4.334-7.784,6.159-11.844
								c1.804-4.07,3.282-8.27,4.522-12.544c1.179-4.292,1.977-8.683,2.446-13.122c0.465-4.448,0.352-8.93,0.036-13.421
								c0.312,2.222,0.761,4.448,0.824,6.707c0.05,1.126,0.203,2.256,0.168,3.386l-0.015,3.396
								c-0.231,4.522-0.826,9.041-1.894,13.458c-1.078,4.413-2.554,8.722-4.288,12.92c-1.807,4.167-3.89,8.206-6.179,12.121
								c-4.675,7.773-10.187,15.012-16.331,21.638C672.26,321.697,665.558,327.81,658.24,333.059z"/>
						</g>
					</g>
				</g>
			</g>
			<g>
				<g>
					<g>
						<path style="fill:#E48047;" d="M682.621,162.69c-2.955-6.945-3.99-35.463-4.142-37.102
							c0.744-20.082-12.969-21.853-22.171-19.704c-6.654,1.553-11.087,8.426-11.894,17.035c-1.126,6.402-6.195,11.106-6.195,11.106
							l7.01-0.379c2.427,10.02,8.928,17.475,15.997,19.295l1.595,13.739L682.621,162.69z"/>
						<path style="fill:#C5501E;" d="M661.945,159.133l5.38-6.06c-2.024,0.473-4.083,0.408-6.096-0.11L661.945,159.133z"/>
					</g>
					<path style="fill:#802412;" d="M650.113,103.143c0,0-8.127-0.296-8.57,5.763c-0.443,6.058,9.9,3.99,9.9,3.99
						s-0.295,6.058,6.058,4.876c0,0-1.33,7.979,6.058,9.457c0,0,1.773,3.694,5.467,3.251c0,0,1.773,8.422,6.797,8.127
						c5.024-0.296,5.615-6.206,5.615-6.206s4.876-1.625,2.364-7.684c0,0,6.354-7.831-2.66-12.56c0,0-1.182-12.412-14.481-9.309
						C666.663,102.847,658.979,98.266,650.113,103.143z"/>
					<g>
						
							<path style="fill:none;stroke:#C9571F;stroke-width:1.0351;stroke-linecap:round;stroke-linejoin:round;stroke-miterlimit:10;" d="
							M648.775,141.874c0,0,4.876-0.443,6.649-7.536"/>
						<path style="fill:#603813;" d="M651.443,125.011c0,1.02-0.827,1.847-1.847,1.847c-1.02,0-1.847-0.827-1.847-1.847
							s0.827-1.847,1.847-1.847C650.616,123.164,651.443,123.991,651.443,125.011z"/>
						
							<line style="fill:none;stroke:#802412;stroke-width:2.0703;stroke-miterlimit:10;" x1="647.01" y1="122.647" x2="654.251" y2="122.352"/>
					</g>
				</g>
				<g>
					<path style="fill:#8EADA8;" d="M667.254,123.386c0,0,2.194-17.259-6.369-22.382c-0.044-0.026,0.001-0.083,0.252-0.067
						c0.734,0.048,2.477,0.286,4.871,1.411c0.124,0.058,0.246,0.14,0.344,0.236c6.435,6.294,4.45,20.802,4.45,20.802H667.254z"/>
					<circle style="fill:#7A9592;" cx="666.663" cy="130.035" r="8.866"/>
					<circle style="fill:#8EADA8;" cx="666.663" cy="130.035" r="5.062"/>
				</g>
			</g>
			<g>
				<path style="fill:#9F7B4A;" d="M685.433,161.065c14.919,6.436,22.318,73.481,23.98,90.69c0.221,2.289-1.373,4.364-3.645,4.715
					c-15.537,2.4-31.953,1.212-39.3,0.452c-2.245-0.232-3.931-2.143-3.893-4.4l0.987-59.243c0,0-28.963,22.752-37.234,20.092
					c-6.221-1.998-16.293-36.406-20.899-53.351l0.207-0.062c0,0,5.838-8.426,14.782-5.093l14.181,33.984
					C634.597,188.848,668.291,153.674,685.433,161.065z"/>
				<path style="fill:#E48047;" d="M610.354,142.401c-0.248-1.573-7.184-44.997,3.561-2.909c0,0,0.29-37.824,3.84,6.801
					c0,0,10.341-27.483,2.66,8.571c-8.944-3.333-14.782,5.093-14.782,5.093l-0.207,0.062c-1.522-5.6-2.453-9.296-2.453-9.296
					s-9.44-33.963,2.65-5.062C605.375,144.295,598.171,105.302,610.354,142.401z"/>
				<g>
					<g>
						<path style="fill:#7A5120;" d="M630.837,179.818c1.338,2.176,2.385,4.471,3.362,6.795c0.948,2.336,1.823,4.703,2.406,7.19
							c-1.34-2.175-2.387-4.47-3.362-6.795C632.297,184.671,631.422,182.305,630.837,179.818z"/>
					</g>
					<g>
						<path style="fill:#7A5120;" d="M654.202,200.172c2.832-2.597,5.851-4.942,8.915-7.225c3.083-2.258,6.212-4.453,9.53-6.393
							c-2.831,2.599-5.85,4.944-8.915,7.226C660.648,196.036,657.518,198.23,654.202,200.172z"/>
					</g>
					<g>
						<path style="fill:#7A5120;" d="M620.416,154.864c2.504,5.605,4.974,11.225,7.393,16.865l3.644,8.455l3.579,8.482l-0.776-0.145
							c3.532-3.617,7.193-7.079,11.044-10.339c3.843-3.265,7.832-6.364,12.009-9.203c4.189-2.812,8.606-5.34,13.34-7.148
							c2.359-0.911,4.832-1.578,7.358-1.815c2.512-0.242,5.126-0.01,7.424,1.049c-2.353-0.925-4.924-1.047-7.387-0.72
							c-2.476,0.327-4.874,1.09-7.185,2.027c-2.312,0.944-4.545,2.077-6.717,3.316c-2.162,1.26-4.258,2.627-6.331,4.03
							c-4.12,2.847-8.06,5.957-11.855,9.232c-3.786,3.281-7.514,6.657-11.02,10.224l-0.006,0.006
							c-0.182,0.185-0.48,0.188-0.665,0.006c-0.046-0.045-0.082-0.1-0.105-0.156l-3.512-8.51l-3.446-8.537
							C624.896,166.295,622.64,160.587,620.416,154.864z"/>
					</g>
				</g>
			</g>
		</g>
	</g>
	<g>
		<g>
			<g>
				<g>
					<path style="fill:#A67C52;" d="M91.11,430.716l-0.143,5.649c-0.024,1.553-0.819,2.93-2.02,3.481
						c-6.223,2.859-25.213,11.075-29.185,6.828c-4.766-5.098,23.832-15.293,23.832-15.293L91.11,430.716z"/>
				</g>
				<g>
					<path style="fill:#A67C52;" d="M124.241,430.716l0.144,5.649c0.024,1.553,0.819,2.93,2.02,3.481
						c6.223,2.859,25.213,11.075,29.185,6.828c4.766-5.098-23.832-15.293-23.832-15.293L124.241,430.716z"/>
				</g>
			</g>
			<path style="fill:#B1E3DC;" d="M129.803,240.99l5.315,190.907c-7.088,2.364-11.977,0.296-11.977,0.296l-13.87-161.946h-3.192
				L92.21,432.193c0,0-4.889,2.069-11.977-0.296l5.315-190.907H129.803z"/>
		</g>
		<g>
			<g>
				<path style="fill:#505051;" d="M150.992,197.926l-0.611,0.186c-14.585-3.592-19.864,7.142-20.703,9.12
					c-0.994-2.816-1.967-5.88-2.888-9.213c-7.556-27.379-0.259-30.485-0.259-30.485s7.515-6.997,15.755,6.801
					C144.367,177.244,148.166,188.755,150.992,197.926z"/>
				<path style="fill:#F4B089;" d="M152.244,199.706c8.623-10.507,20.216-25.609,19.388-29.905c0,0-6.211-25.309,2.557-3.902
					c0,0,3.944-35.93,4.213-4.907c0,0,6.791-33.776,3.799-0.838c0,0,8.147-23.881,3.002,2.194c0,0,16.314-25.216-4.482,19.419
					c-0.973,1.221-17.846,44.542-31.013,52.844l-0.476-0.031c-3.592,0.01-12.359-7.08-19.554-27.348
					c0.839-1.977,6.118-12.712,20.703-9.12l0.611-0.186c0.031,0.114,0.062,0.217,0.093,0.321L152.244,199.706z"/>
			</g>
			<g>
				<path style="fill:#505051;" d="M133.726,166.072c3.998,1.845,5.396,5.551,5.085,10.912c-1.146,19.745-4.232,62.488-9.947,65.153
					c-5.714,2.664-19.104,3.286-21.159,3.286c-2.055,0-15.504-0.622-21.219-3.286c-5.711-2.662-8.796-45.336-9.944-65.104
					c-0.313-5.381,0.038-9.433,4.056-11.273l31.2-11.653L133.726,166.072z"/>
				<g>
					<path style="fill:#3C3C3F;" d="M133.726,166.072c1.516,0.647,2.916,1.7,3.792,3.152c0.91,1.427,1.336,3.107,1.519,4.77
						c0.178,1.676,0.047,3.354-0.02,5l-0.24,4.962c-0.348,6.614-0.856,13.22-1.423,19.821c-0.656,6.593-1.358,13.187-2.415,19.736
						c-0.544,3.271-1.14,6.538-1.935,9.763c-0.413,1.608-0.869,3.209-1.455,4.767c-0.295,0.777-0.621,1.546-1.027,2.275
						c-0.415,0.706-0.9,1.454-1.66,1.819c0.732-0.411,1.156-1.171,1.521-1.892c0.363-0.737,0.651-1.511,0.906-2.293
						c0.507-1.567,0.885-3.176,1.22-4.79c0.69-3.227,1.196-6.494,1.642-9.767c0.89-6.548,1.599-13.124,2.173-19.713
						c0.652-6.582,1.144-13.181,1.661-19.778l0.382-4.949c0.117-1.656,0.283-3.291,0.167-4.918c-0.103-1.621-0.437-3.255-1.25-4.673
						C136.498,167.93,135.197,166.822,133.726,166.072z"/>
				</g>
			</g>
		</g>
		<rect x="231.926" y="87.171" style="fill:#4D4D4D;" width="147.392" height="4.433"/>
		<polyline style="fill:#4D4D4D;" points="306.939,87.171 379.318,87.171 379.318,91.604 307.456,91.604 		"/>
		<g>
			<polygon style="fill:#808080;" points="246.555,91.16 99.385,256.062 104.704,256.062 251.874,91.16 			"/>
			<rect x="231.926" y="87.171" style="fill:#4D4D4D;" width="147.392" height="4.433"/>
			<g>
				<g>
					<path d="M19.454,369.465c-0.068,0-0.136-0.008-0.205-0.024c-0.477-0.113-0.771-0.591-0.658-1.068
						c6.207-26.12,26.757-46.075,43.967-60.541c3.902-3.28,7.944-6.556,11.854-9.723c15.421-12.492,31.366-25.41,42.694-41.866
						c1.194-1.735,2.381-3.599,2.632-5.632c0.279-2.264-0.627-4.584-1.502-6.827c-0.17-0.434-0.339-0.867-0.499-1.299
						c-3.578-9.611-2.523-22.411,6.415-28.279c5.095-3.346,11.34-3.548,17.378-3.744c6.062-0.197,11.788-0.383,16.467-3.458
						c7.21-4.739,8.583-13.735,10.038-23.258l0.105-0.689l0.997-5.954c1.21-6.266,3.225-13.241,9.032-17.626
						c3.725-2.812,8.436-4.038,12.992-5.225c5.929-1.543,11.528-3.001,14.598-7.703c1.237-1.895,1.944-4.169,2.226-7.154
						l0.169-5.891c-0.008-3.8-0.016-7.757,1.329-11.404c3.345-9.068,12.83-12.225,22.004-15.278
						c7.139-2.376,14.521-4.833,19.294-10.007c1.31-1.42,2.437-3.077,3.528-4.68l0.663-0.971l3.652-4.551
						c0.022-0.028,0.046-0.054,0.072-0.079c5.002-4.893,12.881-6.873,21.082-5.289c7.437,1.434,13.956,5.311,19.894,9.287
						l0.393,0.263c5.585,3.742,11.914,7.985,18.431,6.911c4.392-0.723,7.806-3.58,11.498-6.96l4.525-4.04
						c2.576-2.127,4.826-3.493,7.108-4.322c4.432-1.61,9.555-1.014,14.058,1.634c4.503,2.648,7.513,6.836,8.26,11.491
						c0.077,0.484-0.252,0.938-0.735,1.016c-0.482,0.081-0.938-0.252-1.016-0.735c-0.663-4.131-3.363-7.864-7.408-10.243
						c-4.047-2.38-8.623-2.925-12.553-1.496c-2.085,0.758-4.169,2.029-6.559,4l-4.491,4.011c-3.753,3.436-7.532,6.592-12.399,7.395
						c-7.209,1.185-13.848-3.263-19.706-7.188l-0.393-0.263c-5.783-3.872-12.116-7.645-19.243-9.02
						c-7.491-1.445-14.946,0.387-19.469,4.779l-3.579,4.458l-0.619,0.91c-1.127,1.656-2.292,3.369-3.691,4.885
						c-5.083,5.51-12.686,8.04-20.037,10.487c-9.18,3.055-17.85,5.941-20.9,14.209c-1.235,3.348-1.228,7.143-1.221,10.814
						l-0.173,5.976c-0.313,3.34-1.109,5.869-2.51,8.015c-3.445,5.276-9.643,6.889-15.636,8.449
						c-4.389,1.143-8.927,2.324-12.371,4.924c-5.328,4.023-7.214,10.612-8.356,16.526l-1.094,6.595
						c-1.449,9.488-2.947,19.299-10.817,24.473c-5.096,3.349-11.343,3.552-17.384,3.748c-6.06,0.197-11.783,0.382-16.462,3.454
						c-6.178,4.056-10.129,14.351-5.727,26.178c0.157,0.423,0.323,0.847,0.489,1.273c0.956,2.448,1.944,4.98,1.61,7.688
						c-0.3,2.431-1.612,4.505-2.931,6.421c-11.473,16.667-27.52,29.667-43.038,42.238c-3.904,3.162-7.94,6.432-11.829,9.701
						c-17.001,14.292-37.296,33.981-43.382,59.595C20.219,369.191,19.856,369.465,19.454,369.465z"/>
				</g>
				<polygon style="fill:#808080;" points="148.715,206.748 140.172,216.32 137.005,213.909 146.522,203.246 				"/>
				<polygon style="fill:#808080;" points="200.117,149.154 188.879,161.745 185.989,159.023 196.664,147.062 				"/>
				<polygon style="fill:#808080;" points="243.4,100.656 229.499,116.231 226.934,113.146 238.811,99.837 				"/>
				<polygon style="fill:#4D4D4D;" points="306.939,87.171 289.169,87.171 289.341,91.604 307.456,91.604 				"/>
			</g>
			<path style="fill:#333333;" d="M416.997,99.361h-48.761c-5.509,0-9.974-4.465-9.974-9.974l0,0c0-5.508,4.465-9.974,9.974-9.974
				h48.761c5.508,0,9.974,4.465,9.974,9.974l0,0C426.971,94.896,422.506,99.361,416.997,99.361z"/>
		</g>
		<g>
			<g>
				<path style="fill:#F4B089;" d="M121.362,159.425l-0.256-14.924L99.68,122.632l0.392,35.894
					C100.072,158.526,111.274,167.404,121.362,159.425z"/>
				<path style="fill:#ED9C74;" d="M121.227,150.868l-0.122-6.368L99.68,121.912l0.331,30.354
					C102.472,153.988,109.092,154.891,121.227,150.868z"/>
			</g>
			<g>
				<g>
					<path style="fill:#F4B089;" d="M99.707,137.535c0.103,8.271,6.832,13.174,15.127,13.174h0.739
						c8.36,0,15.137-6.777,15.137-15.137V115.52c0-6.353-5.15-11.504-11.504-11.504h-8.004c-6.354,0-11.504,5.15-11.504,11.504
						L99.707,137.535z"/>
					<g>
						<path style="fill:#736357;" d="M105.443,98.549c-12.56-2.364-10.639,9.013-10.639,9.013s-4.581,15.072,3.842,15.072
							s7.831-11.821,7.831-11.821s5.172,4.433,9.161,0c0,0,5.172,3.251,8.127-0.887c0,0,4.728,2.66,7.831-2.069
							c3.103-4.728-2.069-7.093-2.069-7.093s-0.739-7.092-7.684-3.251C121.844,97.515,115.343,91.161,105.443,98.549z"/>
						<path style="fill:#736357;" d="M130.71,129.939c-1.272,0.575-2.964,1.642-4.876,3.334c-3.842,3.399-3.694,2.955-6.649,3.103
							c-2.955,0.148-3.251-3.103-9.752-5.319c-6.502-2.216-7.24-10.639-7.24-10.639l-2.492-0.383l0.008,17.501
							c0.103,8.271,6.832,13.174,15.127,13.174h0.739c8.36,0,15.137-6.777,15.137-15.137V129.939z"/>
					</g>
					<g>
						<g>
							<path style="fill:#603813;" d="M117.708,125.294c0,0.734-0.595,1.33-1.33,1.33c-0.734,0-1.33-0.595-1.33-1.33
								c0-0.734,0.595-1.33,1.33-1.33C117.113,123.964,117.708,124.56,117.708,125.294z"/>
							<path style="fill:#603813;" d="M125.392,125.294c0,0.734-0.595,1.33-1.33,1.33s-1.33-0.595-1.33-1.33
								c0-0.734,0.595-1.33,1.33-1.33S125.392,124.56,125.392,125.294z"/>
						</g>
						
							<polyline style="fill:none;stroke:#D87C4E;stroke-width:1.0351;stroke-linecap:round;stroke-linejoin:round;stroke-miterlimit:10;" points="
							120.072,122.634 123.618,129.432 119.776,132.091 						"/>
						
							<path style="fill:none;stroke:#493B32;stroke-width:1.0351;stroke-linecap:round;stroke-linejoin:round;stroke-miterlimit:10;" d="
							M110.615,134.751c0,0,1.182,9.9,10.195,6.945"/>
						<g>
							<path style="fill:none;stroke:#736357;stroke-width:2.0703;stroke-miterlimit:10;" d="M111.206,124.112
								c0,0,0.887-3.842,4.728-4.876"/>
							<path style="fill:none;stroke:#736357;stroke-width:2.0703;stroke-miterlimit:10;" d="M121.697,116.724
								c0,0,3.842,1.182,4.433,3.842"/>
						</g>
					</g>
				</g>
				<g>
					<path style="fill:#8EADA8;" d="M98.055,120.418c0,0-0.749-17.33,4.285-19.8c7.831-3.842,26.265-2.396,26.265-2.396
						s1.13-0.119,0.977,1.835c-0.017,0.215-0.206,0.375-0.422,0.357c-2.482-0.212-16.451-1.22-23.57,2.272
						c-5.034,2.47-4.285,18.47-4.285,18.47L98.055,120.418z"/>
					<ellipse style="fill:#7A9592;" cx="98.561" cy="129.136" rx="7.831" ry="10.639"/>
					<ellipse style="fill:#8EADA8;" cx="96.904" cy="129.337" rx="6.174" ry="8.388"/>
				</g>
			</g>
		</g>
		<g>
			<g>
				<path style="fill:#F4B089;" d="M124.999,237.996c0.062,1.946-2.495,2.163-2.495,2.163v0.28c0.559,3.105-1.987,3.209-1.987,3.209
					c0.331,1.884-2.557,1.998-2.557,1.998c-1.18,2.36-12.07-1.108-12.07-1.108c-4.886-1.77-47.44-7.246-58.516-18.177
					c-2.339-2.722-2.619-13.995,8.157-32.617c10.846-2.893,20.92,10.165,20.92,10.165c-3.758,5.911-6.915,10.631-6.915,10.631
					s39.615,21.241,45.939,18.415c6.314-2.826,4.099,0.228,4.099,0.228C118.406,236.837,124.948,236.06,124.999,237.996z"/>
				<g>
					<g>
						<path style="fill:#CC663A;" d="M72.228,215.957c-1.349-0.255-2.55-0.79-3.715-1.39c-1.15-0.629-2.265-1.326-3.229-2.304
							c1.35,0.253,2.551,0.788,3.715,1.39C70.147,214.284,71.262,214.981,72.228,215.957z"/>
					</g>
					<g>
						<path style="fill:#CC663A;" d="M123.701,239.827c-0.342,0.427-0.867,0.651-1.374,0.777c-0.516,0.134-1.046,0.14-1.562,0.094
							c-1.029-0.123-2.016-0.485-2.8-1.204c0.536-0.041,1.025-0.006,1.504,0.039c0.481,0.026,0.943,0.102,1.404,0.136
							c0.459,0.061,0.915,0.097,1.376,0.134C122.713,239.829,123.174,239.863,123.701,239.827z"/>
					</g>
					<g>
						<path style="fill:#CC663A;" d="M121.54,243.345c-0.342,0.427-0.867,0.651-1.374,0.777c-0.516,0.134-1.046,0.14-1.562,0.094
							c-1.029-0.123-2.016-0.485-2.8-1.204c0.536-0.041,1.025-0.006,1.504,0.039c0.481,0.026,0.943,0.102,1.404,0.136
							c0.459,0.061,0.915,0.097,1.376,0.134C120.552,243.348,121.013,243.381,121.54,243.345z"/>
					</g>
					<g>
						<path style="fill:#CC663A;" d="M119.217,245.393c-0.376,0.398-0.918,0.578-1.433,0.662c-0.525,0.091-1.054,0.053-1.564-0.035
							c-1.015-0.207-1.969-0.649-2.691-1.43c0.538,0.003,1.022,0.079,1.496,0.163c0.477,0.065,0.931,0.179,1.388,0.251
							c0.452,0.098,0.904,0.172,1.36,0.247C118.233,245.315,118.69,245.386,119.217,245.393z"/>
					</g>
				</g>
			</g>
			<g>
				<path style="fill:#505051;" d="M83.718,165.63c0,0,10.196,1.18,5.031,16.407c-0.869,3.457-7.153,13.778-12.297,21.872
					c0,0-18.819-10.817-20.92-10.165c1.491-2.577,3.199-5.31,5.145-8.167C76.628,162.089,83.718,165.63,83.718,165.63z"/>
				<g>
					<path style="fill:#3C3C3F;" d="M83.708,165.573c1.644,0.178,3.22,0.966,4.429,2.153c1.228,1.19,1.931,2.844,2.23,4.502
						c0.219,0.832,0.174,1.681,0.248,2.527c-0.049,0.838-0.088,1.686-0.211,2.516c-0.165,0.82-0.275,1.658-0.488,2.466l-0.698,2.406
						l0.011-0.039c-0.626,2.143-1.659,3.955-2.645,5.825c-1,1.853-2.087,3.651-3.176,5.445c-2.223,3.561-4.521,7.069-6.967,10.479
						c2.041-3.666,4.18-7.268,6.223-10.919c1.041-1.814,2.047-3.646,3.035-5.481c0.493-0.918,0.966-1.845,1.408-2.781
						c0.431-0.931,0.889-1.882,1.14-2.815l0.002-0.007l0.01-0.033l0.699-2.328c0.227-0.777,0.35-1.574,0.532-2.362
						c0.144-0.792,0.183-1.595,0.276-2.393c-0.033-0.793,0.055-1.607-0.113-2.386c-0.193-1.576-0.792-3.111-1.844-4.316
						C86.77,166.817,85.31,165.95,83.708,165.573z"/>
				</g>
			</g>
		</g>
	</g>
	<g>
		<g>
			<g>
				<g>
					<polygon style="fill:#333333;" points="237.685,327.365 210.202,448.863 203.816,448.863 232.556,327.365 					"/>
					<polygon style="fill:#333333;" points="246.544,327.365 274.027,448.863 280.413,448.863 251.673,327.365 					"/>
				</g>
				<rect x="220.751" y="394.917" style="fill:#4D4D4D;" width="42.727" height="4.433"/>
			</g>
			<g>
				<path style="fill:#4D4D4D;" d="M268.117,322.07c0,4.488-11.642,8.127-26.003,8.127c-14.361,0-26.003-3.638-26.003-8.127v-7.388
					h52.005V322.07z"/>
				<ellipse style="fill:#333333;" cx="242.115" cy="314.682" rx="26.002" ry="8.127"/>
			</g>
		</g>
		<g>
			<g>
				<path style="fill:#29ABE2;" d="M268.076,230.424c1.977,0.611,13.798,8.83,21.81,14.502c-0.155,2.857-1.532,9.979-10.672,15.993
					c-5.404-3.033-9.42-5.683-9.42-5.683c-19.823-15.175-16.366-21.22-16.366-21.22S254.971,225.135,268.076,230.424z"/>
				<path style="fill:#F4B089;" d="M334.656,213.096c0.487-0.673,14.854-20.93-4.617,16.914
					c-0.901,1.046-13.208,32.182-25.061,39.025c-4.751,2.671-17.059-3.23-25.764-8.116c9.14-6.014,10.517-13.136,10.672-15.993
					c4.296,3.033,7.494,5.331,7.494,5.331s26.003-25.061,25.081-31.064c0,0-4.575-22.442,2.391-3.333c0,0,4.699-31.427,3.861-4.172
					c0,0,7.132-29.429,3.375-0.6C332.089,211.088,340.059,190.406,334.656,213.096z"/>
				<g>
					<path style="fill:#D87544;" d="M297.379,250.261c-0.243,0.906-0.726,1.604-1.264,2.254c-0.563,0.629-1.185,1.207-2.047,1.577
						c0.242-0.907,0.724-1.605,1.264-2.254C295.897,251.211,296.519,250.633,297.379,250.261z"/>
				</g>
			</g>
			<g>
				<g>
					<path style="fill:#603813;" d="M281.249,437.915c34.178,38.444,3.963,16.321-5.854,8.833c-1.747-1.333-2.603-3.478-2.238-5.605
						l0.783-4.558L281.249,437.915z"/>
					<path style="fill:#603813;" d="M270.167,446.559c34.178,38.444,3.963,16.321-5.854,8.833c-1.747-1.333-2.603-3.478-2.238-5.605
						l0.783-4.558L270.167,446.559z"/>
				</g>
				<path style="fill:#A67C52;" d="M222.761,294.734c0,0-3.546,10.195,0.887,19.504c4.074,8.556,44.328,49.648,44.328,49.648
					l-6.649,82.008c0,0,7.092,5.172,11.821,1.773l1.182-7.536c0,0,4.728,3.546,10.048,0l20.246-85.722
					c0.541-2.289,0.233-4.699-0.913-6.753c-7.772-13.933-42.827-50.706-42.827-50.706L222.761,294.734z"/>
				<path style="fill:none;stroke:#82552B;stroke-width:1.0351;stroke-miterlimit:10;" d="M273.148,447.667l14.412-85.249
					c0.796-4.706-0.459-9.527-3.447-13.248l-27.81-34.636"/>
			</g>
			<g>
				<g>
					<path style="fill:#29ABE2;" d="M266.78,230.035c3.867,1.836,6.048,6.584,5.513,11.754
						c-1.906,18.447-6.271,55.431-11.479,57.592c-5.175,2.147-17.143,2.601-18.978,2.593c-1.835-0.008-13.852-0.564-19.008-2.755
						c-5.186-2.204-9.233-39.16-10.985-57.641c-0.492-5.193,1.73-9.943,5.632-11.741l22.262-8.298
						c4.164-1.552,8.794-1.243,12.714,0.849L266.78,230.035z"/>
					<g>
						<path style="fill:#0079A3;" d="M266.78,230.035c2.854,1.217,4.739,4.071,5.495,7.048c0.363,1.51,0.469,3.079,0.35,4.63
							l-0.407,4.556c-0.572,6.069-1.296,12.123-2.07,18.172c-0.862,6.037-1.763,12.073-2.994,18.054
							c-0.627,2.987-1.307,5.967-2.17,8.902c-0.442,1.463-0.925,2.918-1.533,4.325c-0.3,0.704-0.636,1.396-1.037,2.051
							c-0.43,0.619-0.872,1.311-1.6,1.609c0.702-0.344,1.085-1.054,1.465-1.688c0.359-0.665,0.657-1.363,0.917-2.074
							c0.529-1.42,0.934-2.885,1.298-4.358c0.758-2.94,1.347-5.924,1.877-8.917c1.064-5.987,1.972-12.005,2.751-18.042
							c0.858-6.026,1.565-12.074,2.306-18.119l0.547-4.533c0.162-1.482,0.1-2.989-0.193-4.455
							C271.205,234.284,269.517,231.463,266.78,230.035z"/>
					</g>
				</g>
				<g>
					<path style="fill:#29ABE2;" d="M218.131,229.368c8.757-4.182,24.098-0.859,6.335,23.28l-12.774,14.564
						c-5.569-9.616-12.567-12.691-16.542-13.674C200.502,244.202,208.359,233.674,218.131,229.368z"/>
					<path style="fill:#F4B089;" d="M209.901,326.361c0.569,0.994,14.751,25.723-2.039,2.754c0.3,0.725,8.26,20.092-3.261,0.269
						c0,0,3.871,26.116-8.312-15.413c-12.08-32.245-9.223-43.403-9.223-43.403s2.867-7.95,8.084-17.028
						c3.975,0.983,10.972,4.058,16.542,13.674l-7.122,8.115c0.176,11.977,0.963,38.393,4.668,41.261c0,0,18.788,13.095,0.569,4.058
						C209.808,320.647,228.037,346.618,209.901,326.361z"/>
					<g>
						<path style="fill:#D87544;" d="M204.57,275.328c-0.441-1.113-0.565-2.235-0.615-3.359c-0.018-1.125,0.041-2.253,0.419-3.39
							c0.443,1.113,0.567,2.235,0.615,3.359C205.005,273.064,204.946,274.192,204.57,275.328z"/>
					</g>
					<g>
						<path style="fill:#0079A3;" d="M218.131,229.368c1.43-0.747,2.985-1.282,4.593-1.555c1.605-0.273,3.28-0.328,4.902,0.069
							c0.809,0.188,1.609,0.48,2.33,0.931c0.727,0.433,1.39,1.012,1.877,1.724c1.056,1.398,1.319,3.201,1.262,4.854
							c-0.183,3.366-1.506,6.451-2.963,9.353c-1.547,2.875-3.371,5.57-5.299,8.174l-0.025,0.031c-2.13,2.427-4.331,4.79-6.501,7.182
							c-2.171,2.39-4.387,4.742-6.615,7.082c2.029-2.515,4.072-5.018,6.159-7.482c2.088-2.463,4.144-4.954,6.272-7.383l-0.024,0.03
							c1.876-2.602,3.638-5.29,5.117-8.116c1.462-2.808,2.766-5.8,2.97-8.912c0.01-0.386,0.042-0.774-0.006-1.154l-0.044-0.573
							l-0.112-0.558c-0.052-0.38-0.21-0.723-0.313-1.088c-0.173-0.331-0.299-0.693-0.531-0.991c-0.399-0.638-0.96-1.168-1.598-1.584
							c-0.63-0.432-1.356-0.731-2.107-0.937C224.436,227.664,221.096,228.15,218.131,229.368z"/>
					</g>
				</g>
			</g>
			<g>
				<g>
					<g>
						<path style="fill:#F4B089;" d="M257.15,228.981l-0.256-20.243l-19.652-34.354l0.443,54.598
							C237.685,228.981,247.063,236.96,257.15,228.981z"/>
						<path style="fill:#ED9C74;" d="M256.948,213.015l-0.054-4.278l-19.652-34.355l0.243,29.891
							C242.367,215.669,252.484,214.289,256.948,213.015z"/>
					</g>
					<g>
						<path style="fill:#29ABE2;" d="M237.636,221.825c0,0-1.601,0.084-3.383,0.869c-1.42,0.626-1.963,2.362-1.125,3.667
							c2.611,4.064,8.82,12.533,14.9,11.926l1.847-5.169l5.651,5.184c0,0,5.504-6.225,5.504-10.684c0-4.459-3.988-5.531-3.988-5.531
							s1.033,6.805-7.537,6.965c-8.57,0.159-11.895-7.126-11.895-7.126"/>
						<path style="fill:#0079A3;" d="M237.636,221.825c-1.15,0.13-2.268,0.468-3.31,0.941c-1.042,0.442-1.635,1.651-1.377,2.708
							c0.101,0.53,0.47,0.962,0.794,1.45c0.332,0.471,0.662,0.943,1.01,1.402c0.685,0.926,1.394,1.832,2.136,2.709
							c1.498,1.734,3.1,3.404,4.956,4.708c0.913,0.674,1.914,1.195,2.938,1.618c1.044,0.363,2.126,0.559,3.202,0.478l-0.378,0.296
							l1.825-5.177c0.087-0.246,0.356-0.375,0.602-0.288c0.061,0.021,0.119,0.058,0.164,0.099l5.674,5.159l-0.721,0.038
							c1.022-1.213,1.993-2.515,2.86-3.856c0.852-1.348,1.649-2.753,2.125-4.241c0.258-0.74,0.384-1.499,0.422-2.245
							c-0.011-0.76-0.128-1.513-0.413-2.2c-0.547-1.374-1.828-2.45-3.215-2.908l0.555-0.496c0.125,1.212-0.057,2.37-0.534,3.46
							c-0.467,1.083-1.289,2.019-2.29,2.619c-2.029,1.2-4.387,1.357-6.6,1.189c-2.244-0.183-4.406-1.041-6.222-2.322
							c-1.792-1.32-3.281-3.047-4.226-5.039c1.067,1.925,2.612,3.557,4.41,4.772c1.826,1.177,3.933,1.883,6.084,2.019
							c2.131,0.114,4.393-0.131,6.151-1.246c1.786-1.091,2.565-3.325,2.348-5.317l-0.004-0.039
							c-0.026-0.236,0.145-0.449,0.382-0.475c0.061-0.007,0.122,0.001,0.177,0.018c1.701,0.542,3.141,1.752,3.842,3.404
							c0.347,0.816,0.489,1.696,0.507,2.563c-0.031,0.879-0.177,1.739-0.447,2.542c-0.508,1.623-1.326,3.083-2.196,4.49
							c-0.881,1.407-1.866,2.718-2.958,3.981c-0.181,0.209-0.497,0.232-0.706,0.051l-0.015-0.014l-5.629-5.208l0.765-0.189
							l-1.869,5.161l-0.006,0.015c-0.059,0.164-0.209,0.27-0.373,0.281c-1.243,0.083-2.468-0.143-3.601-0.571
							c-1.102-0.485-2.148-1.072-3.081-1.798c-1.899-1.412-3.481-3.156-4.956-4.955c-0.724-0.912-1.432-1.836-2.078-2.803
							c-0.331-0.478-0.643-0.968-0.957-1.456c-0.288-0.48-0.682-0.979-0.782-1.61c-0.242-1.227,0.497-2.525,1.632-2.949
							C235.332,222.154,236.481,221.893,237.636,221.825z"/>
					</g>
				</g>
				<g>
					<g>
						<path style="fill:#F4B089;" d="M241.525,200.605c1.693,8.62,9.662,12.451,18.327,10.86l0.772-0.142
							c8.732-1.603,14.511-9.981,12.908-18.713l-3.845-20.945c-1.218-6.636-7.585-11.029-14.222-9.81l-8.361,1.535
							c-6.636,1.218-11.029,7.586-9.81,14.222L241.525,200.605z"/>
						<path style="fill:#EA7500;" d="M237.39,193.444c0,0,9.531-11.304,9.752-17.953c21.499,9.974,44.55-22.829,14.628-25.046
							c0,0,3.103,3.768,3.103,4.433c0,0-6.206-3.325-11.525-2.216c0,0,9.309,4.654-7.757,6.428s-12.19,23.937-11.082,30.143
							C234.508,189.233,235.616,194.552,237.39,193.444z"/>
						<g>
							<g>
								<path style="fill:#736357;" d="M261.975,186.13c0,1.011-0.819,1.83-1.83,1.83c-1.011,0-1.83-0.819-1.83-1.83
									c0-1.011,0.819-1.83,1.83-1.83C261.155,184.3,261.975,185.119,261.975,186.13z"/>
								<path style="fill:#736357;" d="M270.176,185.243c0,1.011-0.819,1.83-1.83,1.83c-1.011,0-1.83-0.819-1.83-1.83
									c0-1.011,0.819-1.83,1.83-1.83C269.356,183.413,270.176,184.233,270.176,185.243z"/>
							</g>
							
								<polyline style="fill:none;stroke:#D87544;stroke-width:1.0351;stroke-linecap:round;stroke-linejoin:round;stroke-miterlimit:10;" points="
								264.319,186.573 268.863,190.009 265.538,194.774 							"/>
							<g>
								
									<line style="fill:none;stroke:#EA7500;stroke-width:2.0703;stroke-miterlimit:10;" x1="255.897" y1="179.592" x2="261.992" y2="182.251"/>
								<path style="fill:none;stroke:#EA7500;stroke-width:2.0703;stroke-miterlimit:10;" d="M265.316,180.367
									c0,0,0.332-2.771,4.322-1.662"/>
							</g>
							<g>
								<path style="fill:#FC7777;" d="M255.506,197.092c0.719,1.854,1.912,3.854,3.857,4.964
									C259.964,193.01,257.067,195.278,255.506,197.092z"/>
								
									<path style="fill:none;stroke:#C15F33;stroke-width:1.0351;stroke-linecap:round;stroke-linejoin:round;stroke-miterlimit:10;" d="
									M254.456,192.89c0,0,1.441,15.182,14.407,8.201"/>
							</g>
						</g>
					</g>
					<g>
						<path style="fill:#7A9592;" d="M235.616,181.549c0,0-0.749-17.331,4.285-19.8c7.831-3.842,12.116-6.206,12.116-6.206
							s1.478-0.148,1.182,2.216c0,0-2.216,2.216-10.048,6.058c-5.034,2.47-4.285,18.47-4.285,18.47L235.616,181.549z"/>
						<ellipse style="fill:#8EADA8;" cx="239.228" cy="190.267" rx="7.831" ry="10.639"/>
						<path style="fill:#7A9592;" d="M243.716,191.068c-0.45,4.611-3.566,8.08-6.96,7.749c-3.394-0.331-5.781-4.337-5.33-8.948
							c0.45-4.611,3.566-8.08,6.96-7.749C241.78,182.451,244.166,186.457,243.716,191.068z"/>
					</g>
				</g>
			</g>
		</g>
		<g>
			<g>
				<g>
					<path style="fill:#1A1A1A;" d="M354.417,239.767h-22.359c0,0-27.761,216.618-27.761,217.115h4.431
						c0-0.497,27.761-212.507,27.761-212.507h13.496c0,0,27.761,212.009,27.761,212.507h4.432
						C382.178,456.385,354.417,239.767,354.417,239.767z"/>
					<path style="fill:#333333;" d="M340.371,231.479c0,0,2.56,224.876,2.501,225.404h4.432
						c0.059-0.528-2.501-225.404-2.501-225.404H340.371z"/>
				</g>
				<rect x="330.985" y="217.914" style="fill:#1A1A1A;" width="24.505" height="17.688"/>
			</g>
			<g>
				<g>
					
						<rect x="378.883" y="180.614" transform="matrix(-0.9881 0.1539 -0.1539 -0.9881 800.5341 315.812)" style="fill:#1A1A1A;" width="18.322" height="16.549"/>
					<polygon style="fill:#333333;" points="407.622,199.523 397.322,197.209 394.352,178.141 403.46,172.805 					"/>
				</g>
				<g>
					<path style="fill:#333333;" d="M301.17,229.037l83.439-12.995c2.198-0.342,3.702-2.401,3.359-4.599l-6.855-44.018
						c-0.342-2.198-2.401-3.702-4.599-3.359l-83.439,12.995c-2.198,0.342-3.702,2.401-3.359,4.599l6.855,44.018
						C296.914,227.875,298.973,229.379,301.17,229.037z"/>
					<path style="fill:#FC4444;" d="M367.353,174.615c0.339,2.177,2.379,3.667,4.556,3.328c2.177-0.339,3.667-2.379,3.328-4.556
						c-0.339-2.177-2.379-3.667-4.556-3.328C368.504,170.398,367.014,172.438,367.353,174.615z"/>
					
						<rect x="299.753" y="177.924" transform="matrix(-0.9881 0.1539 -0.1539 -0.9881 690.0073 341.6688)" style="fill:#1A1A1A;" width="64.054" height="39.231"/>
				</g>
				<g>
					
						<rect x="342.843" y="179.279" transform="matrix(-0.9881 0.1539 -0.1539 -0.9881 725.0728 308.4187)" style="fill:none;stroke:#B3B3B3;stroke-width:1.0351;stroke-linecap:round;stroke-linejoin:round;stroke-miterlimit:10;" width="15.515" height="5.984"/>
					
						<rect x="326.043" y="206.797" transform="matrix(-0.9881 0.1539 -0.1539 -0.9881 695.9078 365.712)" style="fill:none;stroke:#B3B3B3;stroke-width:1.0351;stroke-linecap:round;stroke-linejoin:round;stroke-miterlimit:10;" width="15.515" height="5.984"/>
					
						<rect x="307.731" y="209.649" transform="matrix(-0.9881 0.1539 -0.1539 -0.9881 659.9402 374.2)" style="fill:none;stroke:#B3B3B3;stroke-width:1.0351;stroke-linecap:round;stroke-linejoin:round;stroke-miterlimit:10;" width="15.515" height="5.984"/>
					
						<rect x="304.268" y="183.629" transform="matrix(-0.9881 0.1539 -0.1539 -0.9881 669.3705 336.8172)" style="fill:none;stroke:#B3B3B3;stroke-width:1.0351;stroke-linecap:round;stroke-linejoin:round;stroke-miterlimit:10;" width="34.764" height="21.371"/>
					
						<rect x="345.418" y="187.945" transform="matrix(-0.9881 0.1539 -0.1539 -0.9881 732.7383 340.8949)" style="fill:none;stroke:#B3B3B3;stroke-width:1.0351;stroke-linecap:round;stroke-linejoin:round;stroke-miterlimit:10;" width="15.515" height="21.723"/>
				</g>
				<g>
					
						<rect x="281.153" y="185.176" transform="matrix(0.9971 0.0757 -0.0757 0.9971 15.3331 -21.2023)" style="fill:#1A1A1A;" width="12.259" height="12.871"/>
					
						<rect x="278.728" y="183.783" transform="matrix(-0.9971 -0.0757 0.0757 -0.9971 547.7606 403.1162)" style="fill:#333333;" width="5.588" height="14.782"/>
				</g>
				<g>
					
						<rect x="344.506" y="153.162" transform="matrix(-0.9881 0.1539 -0.1539 -0.9881 717.2648 267.6289)" style="fill:#1A1A1A;" width="7.536" height="16.826"/>
					<path style="fill:#333333;" d="M343.507,155.449l35.688-5.558c2.626-0.409,4.423-2.869,4.014-5.495l0,0
						c-0.409-2.626-2.869-4.423-5.495-4.014l-30.933,4.818c-2.626,0.409-4.423,2.869-4.014,5.495L343.507,155.449z"/>
				</g>
			</g>
		</g>
	</g>
</g>
</svg>
