<svg xmlns="http://www.w3.org/2000/svg" xmlns:xlink="http://www.w3.org/1999/xlink" viewBox="0 0 1080 1080" width="1080" height="1080" preserveAspectRatio="xMidYMid meet" style="width: 100%; height: 100%; transform: translate3d(0px, 0px, 0px); content-visibility: visible;"><defs><clipPath id="__lottie_element_3590"><rect width="1080" height="1080" x="0" y="0"></rect></clipPath><clipPath id="__lottie_element_3613"><path d="M0,0 L1080,0 L1080,1080 L0,1080z"></path></clipPath><clipPath id="__lottie_element_3617"><path d="M0,0 L1080,0 L1080,1080 L0,1080z"></path></clipPath><clipPath id="__lottie_element_3633"><path d="M0,0 L1080,0 L1080,1080 L0,1080z"></path></clipPath></defs><g clip-path="url(#__lottie_element_3590)"><g transform="matrix(0.9999452233314514,-0.010467478074133396,0.010467478074133396,0.9999452233314514,579.3363647460938,339.95635986328125)" opacity="1" style="display: block;"><g opacity="1" transform="matrix(1,0,0,1,95.39199829101562,67.74800109863281)"><path fill="rgb(255,190,180)" fill-opacity="1" d=" M-61.78799819946289,-67.49700164794922 C-61.518001556396484,-37.847999572753906 -47.874000549316406,13.491999626159668 -45.77000045776367,14.63700008392334 C-31.389999389648438,22.461000442504883 25.305999755859375,37.5 55.529998779296875,45.058998107910156 C59.382999420166016,42.48400115966797 64.89900207519531,39.108001708984375 67.41899871826172,39.04800033569336 C69.85099792480469,38.9900016784668 67.02999877929688,43.542999267578125 64.35299682617188,47.23899841308594 C65.95700073242188,47.62900161743164 67.39399719238281,47.97600173950195 68.66400146484375,48.27799987792969 C75.08000183105469,48.87900161743164 84.57099914550781,49.981998443603516 85.54000091552734,51.28499984741211 C86.76000213623047,52.92300033569336 75.1449966430664,52.404998779296875 71.64900207519531,52.2140007019043 C71.66699981689453,52.28099822998047 71.68499755859375,52.347999572753906 71.7020034790039,52.41400146484375 C71.7020034790039,52.41400146484375 88.12300109863281,56.41999816894531 88.12300109863281,56.41999816894531 C88.12300109863281,56.41999816894531 95.14199829101562,60.21200180053711 73.3479995727539,57.06999969482422 C73.3479995727539,57.06999969482422 90.78399658203125,62.17300033569336 88.78600311279297,62.81999969482422 C87.32599639892578,63.292999267578125 79.52899932861328,62.487998962402344 75.43000030517578,62.01900100708008 C75.51499938964844,62.23099899291992 75.59400177001953,62.43600082397461 75.66500091552734,62.63399887084961 C79.23500061035156,63.83700180053711 85.05000305175781,65.87300109863281 85.54299926757812,66.53600311279297 C86.26000213623047,67.49800109863281 70.20800018310547,67.45800018310547 70.20800018310547,67.45800018310547 C70.20800018310547,67.45800018310547 70.08799743652344,67.13800048828125 70.08799743652344,67.13800048828125 C69.947998046875,67.14099884033203 69.81900024414062,67.14600372314453 69.67400360107422,67.14800262451172 C63.624000549316406,67.22899627685547 46.39899826049805,64.94999694824219 43.172000885009766,64.58599853515625 C-11.279000282287598,58.45899963378906 -70.41500091552734,62.60200119018555 -75.7770004272461,50.89500045776367 C-78.0009994506836,46.042999267578125 -89.58399963378906,-3.7290000915527344 -91.11599731445312,-9.704999923706055 C-91.11599731445312,-9.704999923706055 -95.14199829101562,-53.792999267578125 -95.14199829101562,-53.792999267578125 C-91.8239974975586,-54.047000885009766 -65.08100128173828,-67.28199768066406 -61.78799819946289,-67.49700164794922z"></path></g></g><g transform="matrix(0.9074239730834961,0.4202163517475128,-0.4202163517475128,0.9074239730834961,600.3397827148438,313.01214599609375)" opacity="1" style="display: block;"><g opacity="1" transform="matrix(1,0,0,1,36.54399871826172,45.81100082397461)"><path fill="rgb(227,12,92)" fill-opacity="1" d=" M3.8259999752044678,13.60200023651123 C-1.8619999885559082,27.732999801635742 -16.632999420166016,38.904998779296875 -21.802000045776367,41.652000427246094 C-21.593000411987305,45.56100082397461 -40.23500061035156,-8.432000160217285 -38.24599838256836,-10.423999786376953 C-25.989999771118164,-22.69300079345703 -18.19099998474121,-19.43199920654297 -15.529000282287598,-21.663999557495117 C-7.448999881744385,-28.44099998474121 -4.269999980926514,-17.554000854492188 -1.9950000047683716,-7.682000160217285 C-1.496000051498413,-5.519000053405762 9.87399959564209,-1.4220000505447388 3.8259999752044678,13.60200023651123z"></path></g></g><g clip-path="url(#__lottie_element_3613)" transform="matrix(1,0,0,1,0,-19.99871826171875)" opacity="1" style="display: block;"><g clip-path="url(#__lottie_element_3633)" transform="matrix(1,0,0,1,0,0)" opacity="1" style="display: block;"><g transform="matrix(-0.7154502868652344,0.6986636519432068,-0.6986636519432068,-0.7154502868652344,343.0857238769531,608.3809814453125)" opacity="1" style="display: block;"><g opacity="1" transform="matrix(1,0,0,1,12.847000122070312,25.900999069213867)"><path fill="rgb(255,190,180)" fill-opacity="1" d=" M-12.595999717712402,-18.059999465942383 C-12.595999717712402,-18.059999465942383 -7.178999900817871,1.996999979019165 -7.178999900817871,1.996999979019165 C-7.178999900817871,1.996999979019165 6.635000228881836,25.649999618530273 8.114999771118164,14.177000045776367 C9.593000411987305,2.7049999237060547 12.595999717712402,-4.114999771118164 12.595999717712402,-4.114999771118164 C12.595999717712402,-4.114999771118164 2.6059999465942383,-25.649999618530273 2.6059999465942383,-25.649999618530273 C2.6059999465942383,-25.649999618530273 -12.595999717712402,-18.059999465942383 -12.595999717712402,-18.059999465942383z"></path></g><g opacity="1" transform="matrix(1,0,0,1,33.6349983215332,38.41299819946289)"><path fill="rgb(0,0,0)" fill-opacity="1" d=" M-5.9720001220703125,-17.586999893188477 C-5.9720001220703125,-17.586999893188477 30.909000396728516,-5.107999801635742 30.909000396728516,-5.107999801635742 C32.560001373291016,-4.548999786376953 32.564998626708984,-2.2139999866485596 30.910999298095703,-1.6649999618530273 C17.358999252319336,2.8239998817443848 -19.229999542236328,14.682000160217285 -28.86199951171875,17.767000198364258 C-30.030000686645508,18.141000747680664 -31.21299934387207,17.280000686645508 -31.22100067138672,16.05299949645996 C-31.26099967956543,9.274999618530273 -31.45800018310547,-9.515999794006348 -32.39899826049805,-14.402999877929688 C-32.56399917602539,-15.262999534606934 -32.198001861572266,-16.118999481201172 -31.468000411987305,-16.54800033569336 C-31.468000411987305,-16.54800033569336 -31.464000701904297,-16.551000595092773 -31.464000701904297,-16.551000595092773 C-30.80900001525879,-16.93600082397461 -29.760000228881836,-17.117000579833984 -29.36199951171875,-16.451000213623047 C-27.275999069213867,-12.972999572753906 -19.5939998626709,-4.0229997634887695 -16.11400032043457,-6.870999813079834 C-13.118000030517578,-9.324000358581543 -9.289999961853027,-14.901000022888184 -8.697999954223633,-16.55500030517578 C-8.29699993133545,-17.67099952697754 -7.017000198364258,-18.141000747680664 -5.9720001220703125,-17.586999893188477z"></path></g><g opacity="1" transform="matrix(1,0,0,1,31.038999557495117,25.94300079345703)"><path fill="rgb(51,0,97)" fill-opacity="1" d=" M1.6349999904632568,-3.9570000171661377 C1.6349999904632568,-3.9570000171661377 -1.6349999904632568,3.9570000171661377 -1.6349999904632568,3.9570000171661377"></path><path stroke-linecap="round" stroke-linejoin="miter" fill-opacity="0" stroke-miterlimit="10" stroke="rgb(255,255,255)" stroke-opacity="1" stroke-width="1.817" d=" M1.6349999904632568,-3.9570000171661377 C1.6349999904632568,-3.9570000171661377 -1.6349999904632568,3.9570000171661377 -1.6349999904632568,3.9570000171661377"></path></g><g opacity="1" transform="matrix(1,0,0,1,35.76499938964844,28.27400016784668)"><path fill="rgb(51,0,97)" fill-opacity="1" d=" M1.6349999904632568,-3.9579999446868896 C1.6349999904632568,-3.9579999446868896 -1.6349999904632568,3.9579999446868896 -1.6349999904632568,3.9579999446868896"></path><path stroke-linecap="round" stroke-linejoin="miter" fill-opacity="0" stroke-miterlimit="10" stroke="rgb(255,255,255)" stroke-opacity="1" stroke-width="1.817" d=" M1.6349999904632568,-3.9579999446868896 C1.6349999904632568,-3.9579999446868896 -1.6349999904632568,3.9579999446868896 -1.6349999904632568,3.9579999446868896"></path></g><g opacity="1" transform="matrix(1,0,0,1,35.672000885009766,49.435001373291016)"><path fill="rgb(255,29,115)" fill-opacity="1" d=" M-30.058000564575195,15.734000205993652 C-30.058000564575195,15.734000205993652 33.26599884033203,-6.6620001792907715 33.26599884033203,-6.6620001792907715 C33.26599884033203,-6.6620001792907715 30.05699920654297,-15.734000205993652 30.05699920654297,-15.734000205993652 C30.05699920654297,-15.734000205993652 -33.26599884033203,6.663000106811523 -33.26599884033203,6.663000106811523 C-33.26599884033203,6.663000106811523 -30.058000564575195,15.734000205993652 -30.058000564575195,15.734000205993652z"></path></g></g><g transform="matrix(1,0,0,1,319.8390197753906,477.0669860839844)" opacity="1" style="display: block;"><g opacity="1" transform="matrix(1,0,0,1,145.19400024414062,106.4280014038086)"><path fill="rgb(22,69,176)" fill-opacity="1" d=" M144.94400024414062,-68.3550033569336 C144.94400024414062,-68.3550033569336 97.60700225830078,35.19300079345703 34.229000091552734,97.63899993896484 C27.209999084472656,104.55500030517578 22.029571533203125,104.2051773071289 13.085604667663574,100.56503295898438 C13.085604667663574,100.56503295898438 -143.61941528320312,33.801658630371094 -143.61941528320312,33.801658630371094 C-143.61941528320312,33.801658630371094 -129.24728393554688,-3.962641716003418 -129.24728393554688,-3.962641716003418 C-129.24728393554688,-3.962641716003418 -35.642791748046875,11.882514953613281 -3.1983261108398438,32.49001693725586 C1.6666563749313354,35.57988739013672 3.5390000343322754,36.48099899291992 5.343999862670898,30.884000778198242 C17.40999984741211,-6.543000221252441 47.16999816894531,-89.65499877929688 86.0719985961914,-106.1780014038086 C86.0719985961914,-106.1780014038086 144.94400024414062,-68.3550033569336 144.94400024414062,-68.3550033569336z"></path></g></g><g transform="matrix(-0.6815920472145081,-0.7317323684692383,0.7317323684692383,-0.6815920472145081,689.6242065429688,853.1633911132812)" opacity="1" style="display: block;"><g opacity="1" transform="matrix(1,0,0,1,56.930999755859375,45.20199966430664)"><path fill="rgb(255,190,180)" fill-opacity="1" d=" M21.347999572753906,-0.5509999990463257 C21.347999572753906,-0.5509999990463257 5.4029998779296875,-11.756999969482422 5.4029998779296875,-11.756999969482422 C5.4029998779296875,-11.756999969482422 -21.347999572753906,-17.645999908447266 -13.920000076293945,-8.779000282287598 C-6.489999771118164,0.08900000154972076 -10.024999618530273,3.8420000076293945 -10.024999618530273,3.8420000076293945 C-10.024999618530273,3.8420000076293945 15.701000213623047,17.645000457763672 15.701000213623047,17.645000457763672 C15.701000213623047,17.645000457763672 21.347999572753906,-0.5509999990463257 21.347999572753906,-0.5509999990463257z"></path></g><g opacity="1" transform="matrix(1,0,0,1,38.928001403808594,31.541000366210938)"><path fill="rgb(0,0,0)" fill-opacity="1" d=" M9.420000076293945,18.0049991607666 C9.420000076293945,18.0049991607666 -28.95800018310547,24.570999145507812 -28.95800018310547,24.570999145507812 C-30.677000045776367,24.864999771118164 -31.790000915527344,22.812999725341797 -30.59600067138672,21.542999267578125 C-20.81100082397461,11.14900016784668 5.73199987411499,-16.684999465942383 12.737000465393066,-23.979999542236328 C13.586999893188477,-24.864999771118164 15.038000106811523,-24.67099952697754 15.628000259399414,-23.59600067138672 C18.88800048828125,-17.652999877929688 27.999000549316406,-1.218000054359436 31.150999069213867,2.634000062942505 C31.704999923706055,3.311000108718872 31.790000915527344,4.238999843597412 31.35300064086914,4.964000225067139 C31.35300064086914,4.964000225067139 31.350000381469727,4.9670000076293945 31.350000381469727,4.9670000076293945 C30.957000732421875,5.617000102996826 30.121000289916992,6.276000022888184 29.45199966430664,5.88100004196167 C25.96299934387207,3.812999963760376 14.949000358581543,-0.4059999883174896 13.243000030517578,3.75600004196167 C11.77400016784668,7.3379998207092285 11.062000274658203,14.0649995803833 11.326000213623047,15.800000190734863 C11.505000114440918,16.972999572753906 10.60200023651123,17.993999481201172 9.420000076293945,18.0049991607666z"></path></g><g opacity="1" transform="matrix(1,0,0,1,42.94300079345703,46.6510009765625)"><path fill="rgb(51,0,97)" fill-opacity="1" d=" M0.4449999928474426,4.257999897003174 C0.4449999928474426,4.257999897003174 -0.4449999928474426,-4.257999897003174 -0.4449999928474426,-4.257999897003174"></path><path stroke-linecap="round" stroke-linejoin="miter" fill-opacity="0" stroke-miterlimit="10" stroke="rgb(255,255,255)" stroke-opacity="1" stroke-width="1.817" d=" M0.4449999928474426,4.257999897003174 C0.4449999928474426,4.257999897003174 -0.4449999928474426,-4.257999897003174 -0.4449999928474426,-4.257999897003174"></path></g><g opacity="1" transform="matrix(1,0,0,1,37.678001403808594,46.8489990234375)"><path fill="rgb(51,0,97)" fill-opacity="1" d=" M0.4449999928474426,4.257999897003174 C0.4449999928474426,4.257999897003174 -0.4449999928474426,-4.257999897003174 -0.4449999928474426,-4.257999897003174"></path><path stroke-linecap="round" stroke-linejoin="miter" fill-opacity="0" stroke-miterlimit="10" stroke="rgb(255,255,255)" stroke-opacity="1" stroke-width="1.817" d=" M0.4449999928474426,4.257999897003174 C0.4449999928474426,4.257999897003174 -0.4449999928474426,-4.257999897003174 -0.4449999928474426,-4.257999897003174"></path></g><g opacity="1" transform="matrix(1,0,0,1,26.760000228881836,28.131000518798828)"><path fill="rgb(255,29,115)" fill-opacity="1" d=" M-19.48200035095215,27.881000518798828 C-19.48200035095215,27.881000518798828 26.510000228881836,-21.31100082397461 26.510000228881836,-21.31100082397461 C26.510000228881836,-21.31100082397461 19.48200035095215,-27.881000518798828 19.48200035095215,-27.881000518798828 C19.48200035095215,-27.881000518798828 -26.510000228881836,21.312000274658203 -26.510000228881836,21.312000274658203 C-26.510000228881836,21.312000274658203 -19.48200035095215,27.881000518798828 -19.48200035095215,27.881000518798828z"></path></g></g><g transform="matrix(1,0,0,1,319.8390197753906,477.0669860839844)" opacity="1" style="display: block;"><g opacity="1" transform="matrix(1,0,0,1,145.19400024414062,106.4280014038086)"><path fill="rgb(42,88,193)" fill-opacity="1" d=" M144.94400024414062,-68.3550033569336 C144.94400024414062,-68.3550033569336 153.52999877929688,-57.83599853515625 224.42300415039062,-4.072999954223633 C232.2740020751953,1.88100004196167 231.89959716796875,9.301617622375488 232.9230499267578,18.68781852722168 C232.9230499267578,18.68781852722168 248.28280639648438,184.52915954589844 248.28280639648438,184.52915954589844 C248.28280639648438,184.52915954589844 209.11415100097656,189.70745849609375 209.11415100097656,189.70745849609375 C209.11415100097656,189.70745849609375 169.6692352294922,89.60379791259766 172.32579040527344,52.11566162109375 C172.72425842285156,46.4944953918457 172.6591033935547,46.40825271606445 166.86109924316406,45.42525100708008 C128.09010314941406,38.85325241088867 1.9670000076293945,-18.993999481201172 86.0719985961914,-106.1780014038086 C86.0719985961914,-106.1780014038086 144.94400024414062,-68.3550033569336 144.94400024414062,-68.3550033569336z"></path></g></g></g><g clip-path="url(#__lottie_element_3617)" style="display: none;" transform="matrix(1,0,0,1,0,0)" opacity="1"><g style="display: block;" transform="matrix(-0.8878836631774902,-0.46006807684898376,0.46006807684898376,-0.8878836631774902,768.7308959960938,847.7009887695312)" opacity="1"><g opacity="1" transform="matrix(1,0,0,1,56.930999755859375,45.20199966430664)"><path fill="rgb(255,190,180)" fill-opacity="1" d=" M21.347999572753906,-0.5509999990463257 C21.347999572753906,-0.5509999990463257 5.4029998779296875,-11.756999969482422 5.4029998779296875,-11.756999969482422 C5.4029998779296875,-11.756999969482422 -21.347999572753906,-17.645999908447266 -13.920000076293945,-8.779000282287598 C-6.489999771118164,0.08900000154972076 -10.024999618530273,3.8420000076293945 -10.024999618530273,3.8420000076293945 C-10.024999618530273,3.8420000076293945 15.701000213623047,17.645000457763672 15.701000213623047,17.645000457763672 C15.701000213623047,17.645000457763672 21.347999572753906,-0.5509999990463257 21.347999572753906,-0.5509999990463257z"></path></g><g opacity="1" transform="matrix(1,0,0,1,38.928001403808594,31.541000366210938)"><path fill="rgb(0,0,0)" fill-opacity="1" d=" M9.420000076293945,18.0049991607666 C9.420000076293945,18.0049991607666 -28.95800018310547,24.570999145507812 -28.95800018310547,24.570999145507812 C-30.677000045776367,24.864999771118164 -31.790000915527344,22.812999725341797 -30.59600067138672,21.542999267578125 C-20.81100082397461,11.14900016784668 5.73199987411499,-16.684999465942383 12.737000465393066,-23.979999542236328 C13.586999893188477,-24.864999771118164 15.038000106811523,-24.67099952697754 15.628000259399414,-23.59600067138672 C18.88800048828125,-17.652999877929688 27.999000549316406,-1.218000054359436 31.150999069213867,2.634000062942505 C31.704999923706055,3.311000108718872 31.790000915527344,4.238999843597412 31.35300064086914,4.964000225067139 C31.35300064086914,4.964000225067139 31.350000381469727,4.9670000076293945 31.350000381469727,4.9670000076293945 C30.957000732421875,5.617000102996826 30.121000289916992,6.276000022888184 29.45199966430664,5.88100004196167 C25.96299934387207,3.812999963760376 14.949000358581543,-0.4059999883174896 13.243000030517578,3.75600004196167 C11.77400016784668,7.3379998207092285 11.062000274658203,14.0649995803833 11.326000213623047,15.800000190734863 C11.505000114440918,16.972999572753906 10.60200023651123,17.993999481201172 9.420000076293945,18.0049991607666z"></path></g><g opacity="1" transform="matrix(1,0,0,1,42.94300079345703,46.6510009765625)"><path fill="rgb(51,0,97)" fill-opacity="1" d=" M0.4449999928474426,4.257999897003174 C0.4449999928474426,4.257999897003174 -0.4449999928474426,-4.257999897003174 -0.4449999928474426,-4.257999897003174"></path><path stroke-linecap="round" stroke-linejoin="miter" fill-opacity="0" stroke-miterlimit="10" stroke="rgb(255,255,255)" stroke-opacity="1" stroke-width="1.817" d=" M0.4449999928474426,4.257999897003174 C0.4449999928474426,4.257999897003174 -0.4449999928474426,-4.257999897003174 -0.4449999928474426,-4.257999897003174"></path></g><g opacity="1" transform="matrix(1,0,0,1,37.678001403808594,46.8489990234375)"><path fill="rgb(51,0,97)" fill-opacity="1" d=" M0.4449999928474426,4.257999897003174 C0.4449999928474426,4.257999897003174 -0.4449999928474426,-4.257999897003174 -0.4449999928474426,-4.257999897003174"></path><path stroke-linecap="round" stroke-linejoin="miter" fill-opacity="0" stroke-miterlimit="10" stroke="rgb(255,255,255)" stroke-opacity="1" stroke-width="1.817" d=" M0.4449999928474426,4.257999897003174 C0.4449999928474426,4.257999897003174 -0.4449999928474426,-4.257999897003174 -0.4449999928474426,-4.257999897003174"></path></g><g opacity="1" transform="matrix(1,0,0,1,26.760000228881836,28.131000518798828)"><path fill="rgb(255,29,115)" fill-opacity="1" d=" M-19.48200035095215,27.881000518798828 C-19.48200035095215,27.881000518798828 26.510000228881836,-21.31100082397461 26.510000228881836,-21.31100082397461 C26.510000228881836,-21.31100082397461 19.48200035095215,-27.881000518798828 19.48200035095215,-27.881000518798828 C19.48200035095215,-27.881000518798828 -26.510000228881836,21.312000274658203 -26.510000228881836,21.312000274658203 C-26.510000228881836,21.312000274658203 -19.48200035095215,27.881000518798828 -19.48200035095215,27.881000518798828z"></path></g></g><g style="display: block;" transform="matrix(1,0,0,1,319.8390197753906,477.0669860839844)" opacity="1"><g opacity="1" transform="matrix(1,0,0,1,145.19400024414062,106.4280014038086)"><path fill="rgb(22,69,176)" fill-opacity="1" d=" M144.94400024414062,-68.3550033569336 C144.94400024414062,-68.3550033569336 153.52999877929688,-57.83599853515625 224.42300415039062,-4.072999954223633 C232.2740020751953,1.88100004196167 230.3794708251953,8.045215606689453 233.25868225097656,17.469179153442383 C233.25868225097656,17.469179153442383 281.33502197265625,184.50802612304688 281.33502197265625,184.50802612304688 C281.33502197265625,184.50802612304688 242.18600463867188,197.45249938964844 242.18600463867188,197.45249938964844 C242.18600463867188,197.45249938964844 180.69833374023438,95.66014099121094 176.1143341064453,56.70655822753906 C175.42738342285156,50.86577224731445 174.54718017578125,51.3172492980957 168.74917602539062,50.334251403808594 C129.97817993164062,43.76224899291992 1.9670000076293945,-18.993999481201172 86.0719985961914,-106.1780014038086 C86.0719985961914,-106.1780014038086 144.94400024414062,-68.3550033569336 144.94400024414062,-68.3550033569336z"></path></g></g><g style="display: block;" transform="matrix(-0.866762101650238,0.49872180819511414,-0.49872180819511414,-0.866762101650238,340.57904052734375,585.9434204101562)" opacity="1"><g opacity="1" transform="matrix(1,0,0,1,12.847000122070312,25.900999069213867)"><path fill="rgb(255,190,180)" fill-opacity="1" d=" M-12.595999717712402,-18.059999465942383 C-12.595999717712402,-18.059999465942383 -7.178999900817871,1.996999979019165 -7.178999900817871,1.996999979019165 C-7.178999900817871,1.996999979019165 6.635000228881836,25.649999618530273 8.114999771118164,14.177000045776367 C9.593000411987305,2.7049999237060547 12.595999717712402,-4.114999771118164 12.595999717712402,-4.114999771118164 C12.595999717712402,-4.114999771118164 2.6059999465942383,-25.649999618530273 2.6059999465942383,-25.649999618530273 C2.6059999465942383,-25.649999618530273 -12.595999717712402,-18.059999465942383 -12.595999717712402,-18.059999465942383z"></path></g><g opacity="1" transform="matrix(1,0,0,1,33.6349983215332,38.41299819946289)"><path fill="rgb(0,0,0)" fill-opacity="1" d=" M-5.9720001220703125,-17.586999893188477 C-5.9720001220703125,-17.586999893188477 30.909000396728516,-5.107999801635742 30.909000396728516,-5.107999801635742 C32.560001373291016,-4.548999786376953 32.564998626708984,-2.2139999866485596 30.910999298095703,-1.6649999618530273 C17.358999252319336,2.8239998817443848 -19.229999542236328,14.682000160217285 -28.86199951171875,17.767000198364258 C-30.030000686645508,18.141000747680664 -31.21299934387207,17.280000686645508 -31.22100067138672,16.05299949645996 C-31.26099967956543,9.274999618530273 -31.45800018310547,-9.515999794006348 -32.39899826049805,-14.402999877929688 C-32.56399917602539,-15.262999534606934 -32.198001861572266,-16.118999481201172 -31.468000411987305,-16.54800033569336 C-31.468000411987305,-16.54800033569336 -31.464000701904297,-16.551000595092773 -31.464000701904297,-16.551000595092773 C-30.80900001525879,-16.93600082397461 -29.760000228881836,-17.117000579833984 -29.36199951171875,-16.451000213623047 C-27.275999069213867,-12.972999572753906 -19.5939998626709,-4.0229997634887695 -16.11400032043457,-6.870999813079834 C-13.118000030517578,-9.324000358581543 -9.289999961853027,-14.901000022888184 -8.697999954223633,-16.55500030517578 C-8.29699993133545,-17.67099952697754 -7.017000198364258,-18.141000747680664 -5.9720001220703125,-17.586999893188477z"></path></g><g opacity="1" transform="matrix(1,0,0,1,31.038999557495117,25.94300079345703)"><path fill="rgb(51,0,97)" fill-opacity="1" d=" M1.6349999904632568,-3.9570000171661377 C1.6349999904632568,-3.9570000171661377 -1.6349999904632568,3.9570000171661377 -1.6349999904632568,3.9570000171661377"></path><path stroke-linecap="round" stroke-linejoin="miter" fill-opacity="0" stroke-miterlimit="10" stroke="rgb(255,255,255)" stroke-opacity="1" stroke-width="1.817" d=" M1.6349999904632568,-3.9570000171661377 C1.6349999904632568,-3.9570000171661377 -1.6349999904632568,3.9570000171661377 -1.6349999904632568,3.9570000171661377"></path></g><g opacity="1" transform="matrix(1,0,0,1,35.76499938964844,28.27400016784668)"><path fill="rgb(51,0,97)" fill-opacity="1" d=" M1.6349999904632568,-3.9579999446868896 C1.6349999904632568,-3.9579999446868896 -1.6349999904632568,3.9579999446868896 -1.6349999904632568,3.9579999446868896"></path><path stroke-linecap="round" stroke-linejoin="miter" fill-opacity="0" stroke-miterlimit="10" stroke="rgb(255,255,255)" stroke-opacity="1" stroke-width="1.817" d=" M1.6349999904632568,-3.9579999446868896 C1.6349999904632568,-3.9579999446868896 -1.6349999904632568,3.9579999446868896 -1.6349999904632568,3.9579999446868896"></path></g><g opacity="1" transform="matrix(1,0,0,1,35.672000885009766,49.435001373291016)"><path fill="rgb(255,29,115)" fill-opacity="1" d=" M-30.058000564575195,15.734000205993652 C-30.058000564575195,15.734000205993652 33.26599884033203,-6.6620001792907715 33.26599884033203,-6.6620001792907715 C33.26599884033203,-6.6620001792907715 30.05699920654297,-15.734000205993652 30.05699920654297,-15.734000205993652 C30.05699920654297,-15.734000205993652 -33.26599884033203,6.663000106811523 -33.26599884033203,6.663000106811523 C-33.26599884033203,6.663000106811523 -30.058000564575195,15.734000205993652 -30.058000564575195,15.734000205993652z"></path></g></g><g style="display: block;" transform="matrix(1,0,0,1,319.8390197753906,477.0669860839844)" opacity="1"><g opacity="1" transform="matrix(1,0,0,1,145.19400024414062,106.4280014038086)"><path fill="rgb(42,88,193)" fill-opacity="1" d=" M144.94400024414062,-68.3550033569336 C144.94400024414062,-68.3550033569336 97.60700225830078,35.19300079345703 34.229000091552734,97.63899993896484 C27.209999084472656,104.55500030517578 16.549823760986328,106.17726135253906 7.814640522003174,101.61607360839844 C7.814640522003174,101.61607360839844 -144.94284057617188,18.666324615478516 -144.94284057617188,18.666324615478516 C-144.94284057617188,18.666324615478516 -126.6972427368164,-18.312366485595703 -126.6972427368164,-18.312366485595703 C-126.6972427368164,-18.312366485595703 -33.13121032714844,6.818458080291748 -2.1589150428771973,30.885412216186523 C2.4852793216705322,34.49395751953125 3.5390000343322754,36.48099899291992 5.343999862670898,30.884000778198242 C17.40999984741211,-6.543000221252441 47.16999816894531,-89.65499877929688 86.0719985961914,-106.1780014038086 C86.0719985961914,-106.1780014038086 144.94400024414062,-68.3550033569336 144.94400024414062,-68.3550033569336z"></path></g></g></g></g><g transform="matrix(1,0,0,1,456.3060302734375,231.3452911376953)" opacity="1" style="display: block;"><g opacity="1" transform="matrix(1,0,0,1,208.98399353027344,53.8489990234375)"><path fill="rgb(0,22,17)" fill-opacity="1" d=" M2.4110000133514404,1.0080000162124634 C2.4110000133514404,1.0080000162124634 -1.965000033378601,1.934999942779541 -1.965000033378601,1.934999942779541 C-2.25,1.9950000047683716 -2.5260000228881836,1.7910000085830688 -2.5810000896453857,1.4780000448226929 C-2.5810000896453857,1.4780000448226929 -2.7179999351501465,0.7039999961853027 -2.7179999351501465,0.7039999961853027 C-2.884000062942505,-0.23499999940395355 -2.322999954223633,-1.1430000066757202 -1.468000054359436,-1.3240000009536743 C-1.468000054359436,-1.3240000009536743 0.8420000076293945,-1.812999963760376 0.8420000076293945,-1.812999963760376 C1.6979999542236328,-1.9950000047683716 2.5260000228881836,-1.38100004196167 2.690999984741211,-0.44200000166893005 C2.690999984741211,-0.44200000166893005 2.828000068664551,0.3319999873638153 2.828000068664551,0.3319999873638153 C2.884000062942505,0.6449999809265137 2.697000026702881,0.9470000267028809 2.4110000133514404,1.0080000162124634z"></path></g><g opacity="1" transform="matrix(1,0,0,1,176.80799865722656,73.03700256347656)"><path fill="rgb(255,190,180)" fill-opacity="1" d=" M6.39900016784668,-30.422000885009766 C6.0329999923706055,-29.895000457763672 -7.304999828338623,-18.073999404907227 -7.769000053405762,-18.5 C-11.413999557495117,-21.844999313354492 -17.16200065612793,-25.854999542236328 -20.381999969482422,-20.0939998626709 C-23.49799919128418,-14.52299976348877 -15.420000076293945,-8.062999725341797 -15.097999572753906,-6.901000022888184 C-14.390999794006348,-4.361999988555908 -14.864999771118164,4.439000129699707 -16.235000610351562,6.076000213623047 C-28.17300033569336,20.329999923706055 -40.391998291015625,35.880001068115234 -40.391998291015625,35.880001068115234 C-40.391998291015625,35.880001068115234 -24.628000259399414,55.457000732421875 -10.435999870300293,56.58599853515625 C-10.435999870300293,56.58599853515625 -0.7789999842643738,8.640999794006348 2.447000026702881,11.866000175476074 C3.4660000801086426,12.885000228881836 26.43199920654297,29.604999542236328 33.638999938964844,-3.865999937057495 C40.39099884033203,-35.22800064086914 26.7450008392334,-40.16299819946289 26.041000366210938,-41.207000732421875 C23.79400062561035,-44.53799819946289 24.599000930786133,-56.58599853515625 6.39900016784668,-30.422000885009766z"></path></g><g opacity="1" transform="matrix(1,0,0,1,175.99899291992188,97.73100280761719)"><path fill="rgb(235,123,110)" fill-opacity="1" d=" M6.744999885559082,-11.140999794006348 C6.744999885559082,-11.140999794006348 1.253000020980835,-12.755000114440918 -3.243000030517578,-15.57800006866455 C-4.909999847412109,-16.624000549316406 -6.744999885559082,16.624000549316406 -6.744999885559082,16.624000549316406 C-6.744999885559082,16.624000549316406 3.63100004196167,-9.418000221252441 6.744999885559082,-11.140999794006348z"></path></g><g opacity="1" transform="matrix(1,0,0,1,196.38299560546875,40.65399932861328)"><path fill="rgb(0,22,17)" fill-opacity="1" d=" M2.5450000762939453,-18.091999053955078 C2.5450000762939453,-18.091999053955078 21.718000411987305,-6.85099983215332 15.861000061035156,1.305999994277954 C10.005000114440918,9.463000297546387 -2.0299999713897705,4.593999862670898 -10.185999870300293,5.638999938964844 C-10.185999870300293,5.638999938964844 -11.446999549865723,4.610000133514404 -9.145000457763672,0.8450000286102295 C-3.4560000896453857,-8.465999603271484 -27.33799934387207,19.47800064086914 -27.343000411987305,13.883000373840332 C-27.343000411987305,13.883000373840332 -39.77899932861328,8.513999938964844 -39.77899932861328,8.513999938964844 C-39.77899932861328,8.513999938964844 -40.250999450683594,-16.72599983215332 -30.670000076293945,-21.22800064086914 C-10.939000129699707,-30.49799919128418 2.5450000762939453,-18.091999053955078 2.5450000762939453,-18.091999053955078z"></path></g><g opacity="1" transform="matrix(1,0,0,1,162.77699279785156,54.604000091552734)"><path fill="rgb(207,83,72)" fill-opacity="1" d=" M-3.6110000610351562,2.4000000953674316 C-3.6110000610351562,2.4000000953674316 -0.42800000309944153,-4.873000144958496 3.6110000610351562,4.873000144958496"></path></g><g opacity="1" transform="matrix(1,0,0,1,185.82200622558594,68.16500091552734)"><path fill="rgb(240,131,152)" fill-opacity="1" d="M0 0"></path></g><g opacity="1" transform="matrix(1,0,0,1,197.60400390625,75.7239990234375)"><path fill="rgb(255,255,255)" fill-opacity="1" d=" M-4.604000091552734,0.019999999552965164 C-4.604000091552734,0.019999999552965164 4.604000091552734,2.9670000076293945 4.604000091552734,2.9670000076293945 C4.604000091552734,2.9670000076293945 1.218000054359436,6.558000087738037 -1.5959999561309814,6.171000003814697 C-4.4120001792907715,5.7829999923706055 -4.604000091552734,0.019999999552965164 -4.604000091552734,0.019999999552965164z"></path></g><g opacity="1" transform="matrix(1,0,0,1,203.11599731445312,68.73699951171875)"><path fill="rgb(204,86,98)" fill-opacity="1" d=" M-0.0860000029206276,-3.246999979019165 C-0.0860000029206276,-3.246999979019165 -2.1600000858306885,2.7179999351501465 -2.1600000858306885,2.7179999351501465 C-2.1600000858306885,2.7179999351501465 1.090000033378601,3.1640000343322754 1.090000033378601,3.1640000343322754 C1.6890000104904175,3.246000051498413 2.1600000858306885,2.6570000648498535 1.944000005722046,2.0910000801086426 C1.944000005722046,2.0910000801086426 -0.0860000029206276,-3.246999979019165 -0.0860000029206276,-3.246999979019165z"></path></g><g opacity="1" transform="matrix(1,0,0,1,199.32000732421875,51.97700119018555)"><path fill="rgb(23,32,60)" fill-opacity="1" d=" M-2.259999990463257,1.1670000553131104 C-3.503000020980835,1.7699999809265137 -1.2200000286102295,-1.4500000476837158 0.3709999918937683,-1.6100000143051147 C1.9630000591278076,-1.7699999809265137 3.364000082015991,-0.7860000133514404 3.503000020980835,0.5879999995231628 C3.503000020980835,0.5879999995231628 0.7250000238418579,-0.2800000011920929 -2.259999990463257,1.1670000553131104z"></path></g><g opacity="1" transform="matrix(1,0,0,1,210.5540008544922,55.974998474121094)"><path fill="rgb(23,32,60)" fill-opacity="1" d=" M1.8420000076293945,-0.8479999899864197 C0.3919999897480011,-1.5210000276565552 -1.3539999723434448,-1.0579999685287476 -1.9359999895095825,0.19499999284744263 C-1.9359999895095825,0.19499999284744263 -0.03200000151991844,0.25600001215934753 1.9359999895095825,1.5210000276565552"></path></g><g opacity="1" transform="matrix(1,0,0,1,198.92599487304688,63.62900161743164)"><path fill="rgb(23,32,60)" fill-opacity="1" d=" M-1.684000015258789,0.1850000023841858 C-1.9509999752044678,2.3380000591278076 -1.4509999752044678,4.214000225067139 -0.5690000057220459,4.375 C0.31299999356269836,4.535999774932861 1.2450000047683716,2.9200000762939453 1.5110000371932983,0.7670000195503235 C1.777999997138977,-1.3880000114440918 1.277999997138977,-3.2639999389648438 0.39800000190734863,-3.424999952316284 C-0.48399999737739563,-3.5859999656677246 -1.4170000553131104,-1.968000054359436 -1.684000015258789,0.1850000023841858z"></path></g><g opacity="1" transform="matrix(1,0,0,1,206.4429931640625,64.92500305175781)"><path fill="rgb(23,32,60)" fill-opacity="1" d=" M-1.2869999408721924,0.17900000512599945 C-1.6619999408721924,2.0290000438690186 -1.100000023841858,3.6540000438690186 -0.03700000047683716,3.805999994277954 C1.0260000228881836,3.9579999446868896 2.193000078201294,2.5829999446868896 2.565999984741211,0.7329999804496765 C2.938999891281128,-1.1169999837875366 2.380000114440918,-2.739000082015991 1.3170000314712524,-2.8929998874664307 C0.2540000081062317,-3.046999931335449 -0.9120000004768372,-1.6710000038146973 -1.2869999408721924,0.17900000512599945z"></path></g></g><g transform="matrix(1,0,0,1,549.7890014648438,452.7162780761719)" opacity="1" style="display: block;"><g opacity="1" transform="matrix(1,0,0,1,30.2450008392334,21.356000900268555)"><path fill="rgb(255,190,180)" fill-opacity="1" d=" M29.9950008392334,21.106000900268555 C29.9950008392334,21.106000900268555 37.98699951171875,-1.8899999856948853 37.98699951171875,-1.8899999856948853 C37.98699951171875,-1.8899999856948853 -11.65999984741211,-35.10599899291992 -11.65999984741211,-35.10599899291992 C-11.65999984741211,-35.10599899291992 -29.9950008392334,-15.687999725341797 -29.9950008392334,-15.687999725341797"></path></g></g><g transform="matrix(1,0,0,1,514.8610229492188,325.894287109375)" opacity="1" style="display: block;"><g opacity="1" transform="matrix(1,0,0,1,66.66400146484375,84.7490005493164)"><path fill="rgb(241,22,105)" fill-opacity="1" d=" M21.863000869750977,-84.4990005493164 C21.863000869750977,-84.4990005493164 -22.485000610351562,-58.81100082397461 -31.79599952697754,-26.062000274658203 C-43.025001525878906,13.435999870300293 -33.34457015991211,22.983572006225586 -39.446571350097656,33.80057144165039 C-39.446571350097656,33.80057144165039 28.45199966430664,84.4990005493164 28.45199966430664,84.4990005493164 C28.45199966430664,84.4990005493164 44.974998474121094,40.57699966430664 51.354000091552734,25.308000564575195 C57.9640007019043,9.489999771118164 66.41400146484375,0.20999999344348907 64.53099822998047,-12.026000022888184 C62.64799880981445,-24.261999130249023 49.50699996948242,-57.92100143432617 44.76599884033203,-66.61499786376953 C45.393001556396484,-50.30099868774414 21.863000869750977,-84.4990005493164 21.863000869750977,-84.4990005493164z"></path></g></g><g transform="matrix(0.23136945068836212,0.9728659391403198,-0.9728659391403198,0.23136945068836212,608.6585083007812,355.5646057128906)" opacity="1" style="display: block;"><g opacity="1" transform="matrix(1,0,0,1,95.39199829101562,67.74800109863281)"><path fill="rgb(255,190,180)" fill-opacity="1" d=" M-61.78799819946289,-67.49700164794922 C-61.518001556396484,-37.847999572753906 -47.874000549316406,13.491999626159668 -45.77000045776367,14.63700008392334 C-31.389999389648438,22.461000442504883 25.305999755859375,37.5 55.529998779296875,45.058998107910156 C59.382999420166016,42.48400115966797 64.89900207519531,39.108001708984375 67.41899871826172,39.04800033569336 C69.85099792480469,38.9900016784668 67.02999877929688,43.542999267578125 64.35299682617188,47.23899841308594 C65.95700073242188,47.62900161743164 67.39399719238281,47.97600173950195 68.66400146484375,48.27799987792969 C75.08000183105469,48.87900161743164 84.57099914550781,49.981998443603516 85.54000091552734,51.28499984741211 C86.76000213623047,52.92300033569336 75.1449966430664,52.404998779296875 71.64900207519531,52.2140007019043 C71.66699981689453,52.28099822998047 71.68499755859375,52.347999572753906 71.7020034790039,52.41400146484375 C71.7020034790039,52.41400146484375 88.12300109863281,56.41999816894531 88.12300109863281,56.41999816894531 C88.12300109863281,56.41999816894531 95.14199829101562,60.21200180053711 73.3479995727539,57.06999969482422 C73.3479995727539,57.06999969482422 90.78399658203125,62.17300033569336 88.78600311279297,62.81999969482422 C87.32599639892578,63.292999267578125 79.52899932861328,62.487998962402344 75.43000030517578,62.01900100708008 C75.51499938964844,62.23099899291992 75.59400177001953,62.43600082397461 75.66500091552734,62.63399887084961 C79.23500061035156,63.83700180053711 85.05000305175781,65.87300109863281 85.54299926757812,66.53600311279297 C86.26000213623047,67.49800109863281 70.20800018310547,67.45800018310547 70.20800018310547,67.45800018310547 C70.20800018310547,67.45800018310547 70.08799743652344,67.13800048828125 70.08799743652344,67.13800048828125 C69.947998046875,67.14099884033203 69.81900024414062,67.14600372314453 69.67400360107422,67.14800262451172 C63.624000549316406,67.22899627685547 46.39899826049805,64.94999694824219 43.172000885009766,64.58599853515625 C-11.279000282287598,58.45899963378906 -70.41500091552734,62.60200119018555 -75.7770004272461,50.89500045776367 C-78.0009994506836,46.042999267578125 -89.58399963378906,-3.7290000915527344 -91.11599731445312,-9.704999923706055 C-91.11599731445312,-9.704999923706055 -95.14199829101562,-53.792999267578125 -95.14199829101562,-53.792999267578125 C-91.8239974975586,-54.047000885009766 -65.08100128173828,-67.28199768066406 -61.78799819946289,-67.49700164794922z"></path></g></g><g transform="matrix(0.23136945068836212,0.9728659391403198,-0.9728659391403198,0.23136945068836212,620.243896484375,336.7290344238281)" opacity="1" style="display: block;"><g opacity="1" transform="matrix(1,0,0,1,34.215999603271484,27.648000717163086)"><path fill="rgb(227,12,92)" fill-opacity="1" d=" M33.96699905395508,22.395999908447266 C33.90599822998047,22.027000427246094 21.29800033569336,-27.39699935913086 -5.11299991607666,-16.363000869750977 C-13.642000198364258,-12.800000190734863 -26.69700050354004,-0.40299999713897705 -25.097999572753906,27.802000045776367 C-25.097999572753906,27.802000045776367 33.96699905395508,22.395999908447266 33.96699905395508,22.395999908447266z"></path></g></g><g transform="matrix(1,0,0,1,540,540.0012817382812)" opacity="1" style="display: block;"><g opacity="1" transform="matrix(1,0,0,1,0,0)"><path fill="rgb(213,13,88)" fill-opacity="1" d=" M121.56300354003906,-288.43798828125 C63.8129997253418,-310.8760070800781 74.5,-263.5 74.5,-263.5 C74.5,-263.5 112.98500061035156,-259.19000244140625 129.625,-258.93798828125 C131.875,-275.5010070800781 131.49400329589844,-284.5790100097656 121.56300354003906,-288.43798828125z"></path><path stroke-linecap="butt" stroke-linejoin="miter" fill-opacity="0" stroke-miterlimit="4" stroke="rgb(37,50,55)" stroke-opacity="1" stroke-width="0" d=" M121.56300354003906,-288.43798828125 C63.8129997253418,-310.8760070800781 74.5,-263.5 74.5,-263.5 C74.5,-263.5 112.98500061035156,-259.19000244140625 129.625,-258.93798828125 C131.875,-275.5010070800781 131.49400329589844,-284.5790100097656 121.56300354003906,-288.43798828125z"></path></g><g opacity="1" transform="matrix(1,0,0,1,0,0)"><path fill="rgb(213,13,88)" fill-opacity="1" d=" M51.25,-271.5 C51.25,-271.5 49.97800064086914,-267.302001953125 49.97800064086914,-267.302001953125 C49.97800064086914,-267.302001953125 74.75,-263.75 74.75,-263.75 C74.75,-263.75 74.5,-269.375 74.5,-269.375 C74.5,-269.375 51.25,-271.5 51.25,-271.5z"></path><path stroke-linecap="butt" stroke-linejoin="miter" fill-opacity="0" stroke-miterlimit="4" stroke="rgb(37,50,55)" stroke-opacity="1" stroke-width="0" d=" M51.25,-271.5 C51.25,-271.5 49.97800064086914,-267.302001953125 49.97800064086914,-267.302001953125 C49.97800064086914,-267.302001953125 74.75,-263.75 74.75,-263.75 C74.75,-263.75 74.5,-269.375 74.5,-269.375 C74.5,-269.375 51.25,-271.5 51.25,-271.5z"></path></g></g><g transform="matrix(1,0,0,1,540,536)" opacity="1" style="display: block;"><g opacity="1" transform="matrix(1,0,0,1,0,0)"><path stroke-linecap="round" stroke-linejoin="miter" fill-opacity="0" stroke-miterlimit="4" stroke="rgb(37,50,55)" stroke-opacity="1" stroke-width="8" d=" M-255.5,323.5 C-255.5,320.5 277,319 277,319"></path></g></g></g></svg>